<svg version="1.1" id="Layer_1" xmlns="http://www.w3.org/2000/svg" xmlns:xlink="http://www.w3.org/1999/xlink" x="0px" y="0px"
	 width="100%" viewBox="0 0 2048 2048" enable-background="new 0 0 2048 2048" xml:space="preserve">
<path fill="#405AAD" opacity="1.000000" stroke="none" 
	d="
M1360.000000,2049.000000 
	C906.666687,2049.000000 453.833344,2049.000000 1.000000,2049.000000 
	C1.000000,1366.333374 1.000000,683.666687 1.000000,1.000000 
	C683.666687,1.000000 1366.333374,1.000000 2049.000000,1.000000 
	C2049.000000,683.666687 2049.000000,1366.333374 2049.000000,2049.000000 
	C1819.500000,2049.000000 1590.000000,2049.000000 1360.000000,2049.000000 
M1206.293457,695.276550 
	C1204.953247,696.870544 1203.613159,698.464539 1201.826050,700.569824 
	C1199.511108,703.064514 1197.196167,705.559265 1194.270142,708.258972 
	C1192.298950,710.543823 1190.327637,712.828674 1187.898560,715.619995 
	C1185.564209,718.105713 1183.229980,720.591370 1180.284424,723.279663 
	C1178.301025,725.553711 1176.317505,727.827820 1173.883545,730.613037 
	C1171.228882,733.446472 1168.574219,736.279846 1165.319824,739.311584 
	C1163.975586,740.894714 1162.631226,742.477844 1160.836792,744.568787 
	C1158.839355,746.724854 1156.842041,748.880920 1154.230957,751.226685 
	C1152.248291,753.505188 1150.265747,755.783691 1147.833618,758.573181 
	C1145.507202,761.064514 1143.180664,763.555847 1140.241699,766.240112 
	C1138.263428,768.520813 1136.285156,770.801514 1133.849365,773.586487 
	C1131.529175,776.082703 1129.208984,778.578979 1126.279297,781.278503 
	C1124.292603,783.551208 1122.305908,785.823975 1119.862549,788.601196 
	C1117.541992,791.098022 1115.221436,793.594788 1112.316650,796.292725 
	C1111.287720,797.533447 1110.258667,798.774231 1108.782227,800.527222 
	C1106.477783,803.037964 1104.173340,805.548706 1101.267090,808.253784 
	C1099.932495,809.849060 1098.598022,811.444275 1096.821777,813.557800 
	C1094.509155,816.060425 1092.196411,818.562988 1089.272339,821.265869 
	C1087.285889,823.541931 1085.299561,825.817932 1082.859375,828.600952 
	C1080.542847,831.099548 1078.226196,833.598145 1075.307739,836.291565 
	C1073.959961,837.876221 1072.612183,839.460876 1070.814087,841.557190 
	C1068.184082,844.404724 1065.553955,847.252197 1062.430908,850.309753 
	C1062.016357,850.868652 1061.601685,851.427490 1060.742676,852.501160 
	C1057.894775,855.430359 1055.046875,858.359558 1051.371094,861.210205 
	C1045.761353,861.068604 1041.532593,863.862488 1037.945068,867.763611 
	C1027.954712,878.626892 1018.103577,889.619019 1008.033752,900.407471 
	C1006.440063,902.114929 1003.997498,903.029968 1001.531738,903.764587 
	C985.397705,886.911865 969.272827,870.050354 953.128113,853.207947 
	C877.940979,774.771484 802.778442,696.311462 727.533081,617.930908 
	C711.652344,601.388428 694.111816,586.441406 674.260010,575.217468 
	C635.934448,553.548828 595.429871,546.406738 551.548462,557.648254 
	C483.723267,575.023804 432.945831,634.161499 433.850098,711.508301 
	C433.994202,723.835144 434.910736,736.157532 434.894135,748.481140 
	C434.626465,947.290894 434.246429,1146.100586 433.981445,1344.910400 
	C433.968140,1354.882812 434.066528,1364.943726 435.298859,1374.815430 
	C445.611115,1457.422485 517.604553,1515.844604 600.154846,1508.101562 
	C648.996887,1503.520386 686.943054,1479.839355 713.944397,1438.999512 
	C732.509644,1410.919556 738.469482,1379.531006 738.314453,1346.213623 
	C737.895203,1256.059814 738.177063,1165.902588 738.199524,1075.746704 
	C738.199951,1074.063843 738.432495,1072.380859 738.556763,1070.697998 
	C739.081421,1070.451660 739.606079,1070.205200 740.130737,1069.958740 
	C743.353516,1073.495972 746.576355,1077.033203 749.936462,1081.155396 
	C749.956238,1082.269043 750.315002,1083.513794 749.942871,1084.475952 
	C746.507874,1093.355347 747.029846,1096.419067 753.816589,1103.012695 
	C759.311829,1108.351562 764.886047,1113.617310 770.597107,1118.723145 
	C773.738647,1121.531616 774.702942,1124.505615 774.236511,1128.828979 
	C771.586426,1153.392334 783.721802,1174.020508 805.365601,1181.727661 
	C809.479736,1183.192627 811.363220,1185.413452 812.700562,1189.440674 
	C818.313049,1206.342407 828.480347,1218.721069 847.159424,1221.744263 
	C850.814392,1222.335815 851.405945,1224.738281 852.047363,1227.658203 
	C856.932861,1249.901611 872.133789,1262.866211 894.902405,1263.973145 
	C898.716675,1264.158691 900.443909,1265.697388 901.760559,1269.084961 
	C906.330688,1280.842773 914.961365,1288.325806 927.298950,1290.685425 
	C939.970703,1293.109009 951.986938,1290.677490 963.531860,1284.654419 
	C973.015564,1279.706543 978.484131,1271.139526 984.864319,1263.327515 
	C989.091248,1258.152100 989.536804,1258.326782 994.322388,1262.952881 
	C1003.163025,1271.498657 1011.768066,1280.469971 1021.557617,1287.816406 
	C1045.133545,1305.509155 1078.408813,1297.322144 1091.852661,1271.048950 
	C1093.679077,1267.479736 1095.752319,1266.546875 1099.622925,1266.665894 
	C1112.928345,1267.075439 1125.283936,1264.352295 1136.099976,1255.695068 
	C1144.573975,1248.912354 1149.664673,1240.301270 1152.743408,1230.202026 
	C1153.546387,1227.568115 1154.368286,1225.425171 1157.728394,1224.824341 
	C1179.103271,1221.002808 1189.323486,1205.329224 1196.561401,1187.063477 
	C1198.146240,1183.064087 1199.800293,1180.806152 1203.873047,1179.418457 
	C1218.314331,1174.497314 1227.488159,1163.657227 1234.352661,1150.672119 
	C1237.666504,1144.403687 1238.096313,1137.512695 1235.889404,1130.741699 
	C1234.768188,1127.301636 1235.464355,1124.781616 1237.621826,1122.031494 
	C1247.592651,1109.321655 1257.560181,1096.602539 1267.161987,1083.615479 
	C1269.425171,1080.554565 1270.265869,1076.442017 1272.068726,1072.270508 
	C1272.752197,1071.491455 1273.435669,1070.712402 1274.752197,1069.960571 
	C1275.173462,1069.917236 1275.594604,1069.873779 1276.094604,1070.786377 
	C1276.019653,1161.447632 1275.908936,1252.108765 1275.927246,1342.770020 
	C1275.928955,1351.410889 1276.210083,1360.115967 1277.253784,1368.682373 
	C1287.289062,1451.046265 1359.764771,1509.942139 1442.031616,1502.131470 
	C1490.876953,1497.493896 1528.848633,1473.916016 1555.882324,1433.099487 
	C1574.469360,1405.035889 1580.353516,1373.648071 1580.310913,1340.326904 
	C1580.040039,1128.507935 1580.210327,916.688538 1580.101929,704.869324 
	C1580.097046,695.250488 1579.377930,685.551514 1578.026489,676.026794 
	C1567.970825,605.161316 1504.148438,549.188965 1432.307739,548.010620 
	C1401.015869,547.497375 1372.101562,555.404358 1345.409912,571.945251 
	C1320.242065,587.541748 1296.753784,605.131897 1275.839600,626.187378 
	C1257.432495,644.718994 1238.582642,662.810852 1219.337524,681.292786 
	C1218.312256,682.541199 1217.286987,683.789612 1215.805298,685.545715 
	C1212.835205,688.723328 1209.865234,691.900940 1206.293457,695.276550 
z"/>
<path fill="#91D7E1" opacity="1.000000" stroke="none" 
	d="
M749.799133,1080.570435 
	C746.576355,1077.033203 743.353516,1073.495972 740.130737,1069.958740 
	C739.606079,1070.205200 739.081421,1070.451660 738.556763,1070.697998 
	C738.432495,1072.380859 738.199951,1074.063843 738.199524,1075.746704 
	C738.177063,1165.902588 737.895203,1256.059814 738.314453,1346.213623 
	C738.469482,1379.531006 732.509644,1410.919556 713.944397,1438.999512 
	C686.943054,1479.839355 648.996887,1503.520386 600.154846,1508.101562 
	C517.604553,1515.844604 445.611115,1457.422485 435.298859,1374.815430 
	C434.066528,1364.943726 433.968140,1354.882812 433.981445,1344.910400 
	C434.246429,1146.100586 434.626465,947.290894 434.894135,748.481140 
	C434.910736,736.157532 433.994202,723.835144 433.850098,711.508301 
	C432.945831,634.161499 483.723267,575.023804 551.548462,557.648254 
	C595.429871,546.406738 635.934448,553.548828 674.260010,575.217468 
	C694.111816,586.441406 711.652344,601.388428 727.533081,617.930908 
	C802.778442,696.311462 877.940979,774.771484 953.128113,853.207947 
	C969.272827,870.050354 985.397705,886.911865 1001.822388,904.273438 
	C1002.423157,905.184998 1002.733337,905.587646 1002.767578,906.191711 
	C996.943054,910.625671 996.644653,916.011658 998.971436,922.303223 
	C997.920654,923.770569 996.962341,924.929443 995.665894,925.986328 
	C992.941223,924.123291 990.243713,922.661438 988.216614,920.554565 
	C968.357605,899.913208 948.622620,879.152588 928.828308,858.448914 
	C898.904602,827.150391 868.994263,795.838989 839.015137,764.593689 
	C819.296631,744.042236 799.455811,723.608276 779.692810,703.099426 
	C771.950317,695.064758 764.055664,687.162476 756.605774,678.862854 
	C738.466187,658.654297 719.964478,638.831238 698.986084,621.484131 
	C684.851624,609.796326 670.677185,598.242432 653.466003,591.070435 
	C634.802307,583.293152 615.180420,579.531982 595.319763,577.217224 
	C577.411621,575.130005 559.288391,577.502136 542.486816,582.934326 
	C510.263702,593.352661 486.160583,614.848938 470.394318,644.839539 
	C465.346924,654.440735 461.070099,665.086426 459.493195,675.707397 
	C457.609924,688.392029 458.356232,701.601746 459.128967,714.514282 
	C460.281952,733.780151 469.922638,750.156555 479.917542,765.840515 
	C485.558990,774.692993 493.879242,781.877869 501.212982,789.604980 
	C522.192993,811.710144 543.265625,833.727478 564.338562,855.744202 
	C595.775635,888.589539 627.253784,921.395569 658.695007,954.236938 
	C672.629517,968.792053 686.521912,983.387329 700.412598,997.984253 
	C701.324280,998.942261 702.034302,1000.089233 702.876709,1001.116699 
	C709.065125,1008.664795 714.746826,1016.713867 721.569763,1023.637756 
	C734.420898,1036.678955 748.017639,1048.982300 761.099548,1061.801636 
	C763.892090,1064.538086 765.810364,1068.166626 767.735046,1071.224365 
	C758.580566,1067.991821 753.025146,1071.225952 751.548828,1080.138916 
	C750.732056,1080.340332 750.265564,1080.455322 749.799133,1080.570435 
z"/>
<path fill="#91D7E1" opacity="1.000000" stroke="none" 
	d="
M1089.883667,821.065552 
	C1092.196411,818.562988 1094.509155,816.060425 1097.335205,813.192932 
	C1099.188721,811.238525 1100.528809,809.648987 1101.868896,808.059448 
	C1104.173340,805.548706 1106.477783,803.037964 1109.293945,800.170288 
	C1110.837524,798.572815 1111.869141,797.332214 1112.900879,796.091553 
	C1115.221436,793.594788 1117.541992,791.098022 1120.388184,788.241821 
	C1122.905273,785.613342 1124.896973,783.344238 1126.888672,781.075195 
	C1129.208984,778.578979 1131.529175,776.082703 1134.374268,773.225403 
	C1136.884155,770.591919 1138.869141,768.319519 1140.854126,766.047119 
	C1143.180664,763.555847 1145.507202,761.064514 1148.355957,758.210571 
	C1150.867065,755.577698 1152.855957,753.307373 1154.844727,751.036987 
	C1156.842041,748.880920 1158.839355,746.724854 1161.353027,744.209351 
	C1163.219238,742.270996 1164.569458,740.692139 1165.919556,739.113281 
	C1168.574219,736.279846 1171.228882,733.446472 1174.404053,730.247559 
	C1176.915039,727.613831 1178.905273,725.345459 1180.895630,723.077087 
	C1183.229980,720.591370 1185.564209,718.105713 1188.421387,715.255981 
	C1190.923218,712.612610 1192.902222,710.333313 1194.881104,708.053955 
	C1197.196167,705.559265 1199.511108,703.064514 1202.340576,700.204468 
	C1204.201782,698.252258 1205.548462,696.665405 1206.895142,695.078552 
	C1209.865234,691.900940 1212.835205,688.723328 1216.318604,685.186890 
	C1217.864014,683.584351 1218.896118,682.340637 1219.928223,681.096924 
	C1238.582642,662.810852 1257.432495,644.718994 1275.839600,626.187378 
	C1296.753784,605.131897 1320.242065,587.541748 1345.409912,571.945251 
	C1372.101562,555.404358 1401.015869,547.497375 1432.307739,548.010620 
	C1504.148438,549.188965 1567.970825,605.161316 1578.026489,676.026794 
	C1579.377930,685.551514 1580.097046,695.250488 1580.101929,704.869324 
	C1580.210327,916.688538 1580.040039,1128.507935 1580.310913,1340.326904 
	C1580.353516,1373.648071 1574.469360,1405.035889 1555.882324,1433.099487 
	C1528.848633,1473.916016 1490.876953,1497.493896 1442.031616,1502.131470 
	C1359.764771,1509.942139 1287.289062,1451.046265 1277.253784,1368.682373 
	C1276.210083,1360.115967 1275.928955,1351.410889 1275.927246,1342.770020 
	C1275.908936,1252.108765 1276.019653,1161.447632 1276.030151,1070.098755 
	C1275.350220,1069.585205 1274.734619,1069.759277 1274.119141,1069.933350 
	C1273.435669,1070.712402 1272.752197,1071.491455 1271.469971,1072.618164 
	C1270.272339,1073.025879 1269.673584,1073.086060 1269.261475,1072.768066 
	C1272.633057,1063.147339 1268.431396,1057.561646 1258.256836,1057.256104 
	C1262.412842,1051.894409 1266.365356,1046.611084 1270.812622,1041.783936 
	C1289.318237,1021.697754 1308.008057,1001.781494 1326.563843,981.741516 
	C1349.983521,956.448669 1373.328369,931.086548 1396.725586,905.772949 
	C1409.951172,891.464294 1423.233643,877.208313 1436.461060,862.901367 
	C1460.200684,837.224060 1484.059814,811.654907 1507.576538,785.774780 
	C1517.291016,775.084045 1527.274780,764.401550 1535.340576,752.498596 
	C1552.148438,727.694519 1558.042969,699.855591 1554.334839,670.081421 
	C1553.823242,665.973572 1553.356689,661.753357 1552.031006,657.871338 
	C1544.270752,635.144897 1531.282959,615.977112 1512.969849,600.282043 
	C1471.867798,565.055847 1407.727539,556.157227 1357.567383,591.114380 
	C1335.724365,606.337219 1314.378052,622.319031 1293.390381,638.704712 
	C1281.750610,647.792297 1270.916382,658.022949 1260.446045,668.467041 
	C1249.138550,679.746216 1238.718506,691.912048 1227.839966,703.624878 
	C1213.107056,719.487793 1198.280762,735.264099 1183.540161,751.119995 
	C1158.143066,778.438782 1132.765747,805.776245 1107.411621,833.134827 
	C1096.772461,844.615112 1086.328491,856.278625 1075.557861,867.632996 
	C1071.598267,871.807129 1066.952148,875.330139 1062.697021,878.712830 
	C1063.578491,869.720520 1060.968872,866.567810 1052.162354,865.230469 
	C1052.103149,863.681152 1052.151123,862.484924 1052.198975,861.288696 
	C1055.046875,858.359558 1057.894775,855.430359 1061.210449,852.141357 
	C1062.093506,851.220947 1062.508667,850.660339 1062.923950,850.099731 
	C1065.553955,847.252197 1068.184082,844.404724 1071.332275,841.197083 
	C1073.203491,839.256958 1074.556641,837.676880 1075.909668,836.096802 
	C1078.226196,833.598145 1080.542847,831.099548 1083.383789,828.240295 
	C1085.900146,825.608276 1087.891968,823.336914 1089.883667,821.065552 
z"/>
<path fill="#7789C2" opacity="1.000000" stroke="none" 
	d="
M1269.074707,1073.146240 
	C1269.673584,1073.086060 1270.272339,1073.025879 1271.316040,1072.889526 
	C1270.265869,1076.442017 1269.425171,1080.554565 1267.161987,1083.615479 
	C1257.560181,1096.602539 1247.592651,1109.321655 1237.621826,1122.031494 
	C1235.464355,1124.781616 1234.768188,1127.301636 1235.889404,1130.741699 
	C1238.096313,1137.512695 1237.666504,1144.403687 1234.352661,1150.672119 
	C1227.488159,1163.657227 1218.314331,1174.497314 1203.873047,1179.418457 
	C1199.800293,1180.806152 1198.146240,1183.064087 1196.561401,1187.063477 
	C1189.323486,1205.329224 1179.103271,1221.002808 1157.728394,1224.824341 
	C1154.368286,1225.425171 1153.546387,1227.568115 1152.743408,1230.202026 
	C1149.664673,1240.301270 1144.573975,1248.912354 1136.099976,1255.695068 
	C1125.283936,1264.352295 1112.928345,1267.075439 1099.622925,1266.665894 
	C1095.752319,1266.546875 1093.679077,1267.479736 1091.852661,1271.048950 
	C1078.408813,1297.322144 1045.133545,1305.509155 1021.557617,1287.816406 
	C1011.768066,1280.469971 1003.163025,1271.498657 994.322388,1262.952881 
	C989.536804,1258.326782 989.091248,1258.152100 984.864319,1263.327515 
	C978.484131,1271.139526 973.015564,1279.706543 963.531860,1284.654419 
	C951.986938,1290.677490 939.970703,1293.109009 927.298950,1290.685425 
	C914.961365,1288.325806 906.330688,1280.842773 901.760559,1269.084961 
	C900.443909,1265.697388 898.716675,1264.158691 894.902405,1263.973145 
	C872.133789,1262.866211 856.932861,1249.901611 852.047363,1227.658203 
	C851.405945,1224.738281 850.814392,1222.335815 847.159424,1221.744263 
	C828.480347,1218.721069 818.313049,1206.342407 812.700562,1189.440674 
	C811.363220,1185.413452 809.479736,1183.192627 805.365601,1181.727661 
	C783.721802,1174.020508 771.586426,1153.392334 774.236511,1128.828979 
	C774.702942,1124.505615 773.738647,1121.531616 770.597107,1118.723145 
	C764.886047,1113.617310 759.311829,1108.351562 753.816589,1103.012695 
	C747.029846,1096.419067 746.507874,1093.355347 749.942871,1084.475952 
	C750.315002,1083.513794 749.956238,1082.269043 749.867798,1080.862915 
	C750.265564,1080.455322 750.732056,1080.340332 751.657837,1080.485840 
	C754.229126,1084.021729 755.793091,1087.883301 758.554138,1090.464111 
	C767.434021,1098.764648 776.685974,1106.674561 785.947937,1114.554688 
	C788.860107,1117.032471 790.037231,1119.597778 788.659241,1123.262573 
	C788.076416,1124.812500 787.878601,1126.502563 787.390137,1128.093506 
	C781.367798,1147.707397 796.113098,1166.967529 808.992554,1171.010864 
	C817.441101,1173.663208 821.239075,1177.506470 823.835266,1186.627197 
	C828.423462,1202.745361 840.315186,1213.298096 857.625916,1216.242920 
	C860.691711,1216.764282 862.611694,1217.759888 863.435242,1221.230591 
	C867.388000,1237.890381 879.645691,1248.808228 897.076294,1250.705933 
	C901.923035,1251.233643 904.134277,1253.076172 906.195068,1257.328491 
	C912.997131,1271.364624 924.857056,1279.475220 940.092773,1280.353027 
	C954.413940,1281.178223 965.363220,1273.546265 973.420776,1261.731079 
	C977.231262,1256.143799 981.498169,1250.867676 985.817383,1245.104736 
	C987.541870,1246.592407 988.656128,1247.523193 989.737183,1248.491089 
	C1000.153564,1257.817505 1010.373413,1267.375610 1021.039124,1276.407227 
	C1029.143677,1283.270020 1038.617065,1287.567139 1049.541016,1286.199097 
	C1065.541382,1284.195068 1075.349487,1274.105103 1081.634399,1260.033447 
	C1083.046753,1256.871216 1084.165771,1254.666016 1088.486206,1255.544678 
	C1109.576050,1259.833862 1125.428345,1250.807007 1138.152832,1234.957275 
	C1143.386108,1228.438477 1150.774658,1222.080322 1158.440674,1218.264038 
	C1174.632202,1210.203491 1185.755127,1197.881714 1190.189209,1179.936279 
	C1190.736694,1177.721069 1192.623169,1174.511108 1194.398193,1174.129517 
	C1212.639771,1170.207031 1226.278320,1147.202393 1225.859619,1129.885254 
	C1225.740112,1124.946289 1227.451416,1121.377808 1230.564819,1117.814941 
	C1243.500610,1103.011963 1256.254150,1088.049927 1269.074707,1073.146240 
z"/>
<path fill="#7A8DC6" opacity="1.000000" stroke="none" 
	d="
M1051.785034,861.249512 
	C1052.151123,862.484924 1052.103149,863.681152 1051.799561,865.361267 
	C1044.785400,872.092896 1037.703857,878.031189 1031.349365,884.665710 
	C1023.222168,893.150879 1015.681091,902.197266 1007.656006,910.783203 
	C1005.964233,909.039795 1004.503906,907.515015 1003.043579,905.990295 
	C1002.733337,905.587646 1002.423157,905.184998 1002.030151,904.546875 
	C1003.997498,903.029968 1006.440063,902.114929 1008.033752,900.407471 
	C1018.103577,889.619019 1027.954712,878.626892 1037.945068,867.763611 
	C1041.532593,863.862488 1045.761353,861.068604 1051.785034,861.249512 
z"/>
<path fill="#7A8DC6" opacity="1.000000" stroke="none" 
	d="
M1089.578003,821.165710 
	C1087.891968,823.336914 1085.900146,825.608276 1083.610840,827.986816 
	C1085.299561,825.817932 1087.285889,823.541931 1089.578003,821.165710 
z"/>
<path fill="#7A8DC6" opacity="1.000000" stroke="none" 
	d="
M1126.583984,781.176819 
	C1124.896973,783.344238 1122.905273,785.613342 1120.616455,787.989502 
	C1122.305908,785.823975 1124.292603,783.551208 1126.583984,781.176819 
z"/>
<path fill="#7A8DC6" opacity="1.000000" stroke="none" 
	d="
M1140.547852,766.143616 
	C1138.869141,768.319519 1136.884155,770.591919 1134.603027,772.973267 
	C1136.285156,770.801514 1138.263428,768.520813 1140.547852,766.143616 
z"/>
<path fill="#7A8DC6" opacity="1.000000" stroke="none" 
	d="
M1154.537842,751.131836 
	C1152.855957,753.307373 1150.867065,755.577698 1148.580688,757.955078 
	C1150.265747,755.783691 1152.248291,753.505188 1154.537842,751.131836 
z"/>
<path fill="#7A8DC6" opacity="1.000000" stroke="none" 
	d="
M1180.590088,723.178345 
	C1178.905273,725.345459 1176.915039,727.613831 1174.629395,729.992004 
	C1176.317505,727.827820 1178.301025,725.553711 1180.590088,723.178345 
z"/>
<path fill="#7A8DC6" opacity="1.000000" stroke="none" 
	d="
M1194.575684,708.156494 
	C1192.902222,710.333313 1190.923218,712.612610 1188.650269,715.002686 
	C1190.327637,712.828674 1192.298950,710.543823 1194.575684,708.156494 
z"/>
<path fill="#7A8DC6" opacity="1.000000" stroke="none" 
	d="
M1075.608643,836.194214 
	C1074.556641,837.676880 1073.203491,839.256958 1071.557373,840.941284 
	C1072.612183,839.460876 1073.959961,837.876221 1075.608643,836.194214 
z"/>
<path fill="#7A8DC6" opacity="1.000000" stroke="none" 
	d="
M1101.567993,808.156616 
	C1100.528809,809.648987 1099.188721,811.238525 1097.555908,812.933838 
	C1098.598022,811.444275 1099.932495,809.849060 1101.567993,808.156616 
z"/>
<path fill="#7A8DC6" opacity="1.000000" stroke="none" 
	d="
M1165.619629,739.212402 
	C1164.569458,740.692139 1163.219238,742.270996 1161.578125,743.955444 
	C1162.631226,742.477844 1163.975586,740.894714 1165.619629,739.212402 
z"/>
<path fill="#7A8DC6" opacity="1.000000" stroke="none" 
	d="
M1206.594238,695.177551 
	C1205.548462,696.665405 1204.201782,698.252258 1202.563965,699.948792 
	C1203.613159,698.464539 1204.953247,696.870544 1206.594238,695.177551 
z"/>
<path fill="#7A8DC6" opacity="1.000000" stroke="none" 
	d="
M1112.608765,796.192139 
	C1111.869141,797.332214 1110.837524,798.572815 1109.517822,799.914185 
	C1110.258667,798.774231 1111.287720,797.533447 1112.608765,796.192139 
z"/>
<path fill="#7A8DC6" opacity="1.000000" stroke="none" 
	d="
M1219.632812,681.194824 
	C1218.896118,682.340637 1217.864014,683.584351 1216.546753,684.933044 
	C1217.286987,683.789612 1218.312256,682.541199 1219.632812,681.194824 
z"/>
<path fill="#7A8DC6" opacity="1.000000" stroke="none" 
	d="
M1062.677490,850.204712 
	C1062.508667,850.660339 1062.093506,851.220947 1061.432739,851.883972 
	C1061.601685,851.427490 1062.016357,850.868652 1062.677490,850.204712 
z"/>
<path fill="#7789C2" opacity="1.000000" stroke="none" 
	d="
M1274.435669,1069.947021 
	C1274.734619,1069.759277 1275.350220,1069.585205 1275.990723,1069.620728 
	C1275.594604,1069.873779 1275.173462,1069.917236 1274.435669,1069.947021 
z"/>
<path fill="#73C8D2" opacity="1.000000" stroke="none" 
	d="
M768.131409,1071.384277 
	C765.810364,1068.166626 763.892090,1064.538086 761.099548,1061.801636 
	C748.017639,1048.982300 734.420898,1036.678955 721.569763,1023.637756 
	C714.746826,1016.713867 709.065125,1008.664795 702.876709,1001.116699 
	C702.034302,1000.089233 701.324280,998.942261 700.412598,997.984253 
	C686.521912,983.387329 672.629517,968.792053 658.695007,954.236938 
	C627.253784,921.395569 595.775635,888.589539 564.338562,855.744202 
	C543.265625,833.727478 522.192993,811.710144 501.212982,789.604980 
	C493.879242,781.877869 485.558990,774.692993 479.917542,765.840515 
	C469.922638,750.156555 460.281952,733.780151 459.128967,714.514282 
	C458.356232,701.601746 457.609924,688.392029 459.493195,675.707397 
	C461.070099,665.086426 465.346924,654.440735 470.394318,644.839539 
	C486.160583,614.848938 510.263702,593.352661 542.486816,582.934326 
	C559.288391,577.502136 577.411621,575.130005 595.319763,577.217224 
	C615.180420,579.531982 634.802307,583.293152 653.466003,591.070435 
	C670.677185,598.242432 684.851624,609.796326 698.986084,621.484131 
	C719.964478,638.831238 738.466187,658.654297 756.605774,678.862854 
	C764.055664,687.162476 771.950317,695.064758 779.692810,703.099426 
	C799.455811,723.608276 819.296631,744.042236 839.015137,764.593689 
	C868.994263,795.838989 898.904602,827.150391 928.828308,858.448914 
	C948.622620,879.152588 968.357605,899.913208 988.216614,920.554565 
	C990.243713,922.661438 992.941223,924.123291 995.534790,926.288330 
	C988.595459,936.213318 982.323608,946.179871 980.093567,958.136414 
	C977.313843,973.040222 983.294434,981.621338 998.109375,984.967163 
	C1015.595642,988.916443 1031.020508,983.756470 1045.605103,974.782166 
	C1052.402588,970.599426 1052.199097,970.434448 1057.819336,976.198059 
	C1091.741821,1010.986328 1125.669067,1045.770142 1159.653076,1080.498169 
	C1172.685181,1093.815552 1185.871338,1106.981934 1198.867676,1120.520264 
	C1197.391113,1122.466309 1196.104126,1124.173340 1194.665161,1125.740845 
	C1188.094604,1132.898804 1181.481445,1140.017700 1174.593262,1146.984375 
	C1155.541992,1129.618164 1136.787598,1112.410889 1118.007568,1095.231934 
	C1116.420898,1093.780396 1114.802246,1092.269897 1112.953491,1091.217163 
	C1108.621216,1088.750000 1103.337158,1089.642090 1100.142334,1093.099976 
	C1096.993408,1096.508667 1096.433594,1101.358765 1099.079224,1105.558105 
	C1100.294067,1107.486206 1102.026611,1109.139893 1103.719604,1110.707275 
	C1122.514038,1128.107910 1141.347046,1145.467163 1159.894531,1163.051514 
	C1150.716064,1173.208984 1141.812744,1183.152710 1132.619751,1192.931152 
	C1112.578613,1173.949219 1092.839844,1155.119019 1073.054688,1136.337646 
	C1071.140991,1134.520996 1069.114746,1132.697388 1066.836792,1131.417725 
	C1062.573120,1129.022339 1057.590454,1129.927002 1054.463135,1133.228516 
	C1051.232056,1136.639526 1050.621216,1141.401245 1053.159790,1145.662231 
	C1054.248657,1147.489990 1055.711182,1149.160767 1057.255493,1150.640259 
	C1063.860962,1156.968628 1070.612915,1163.144287 1077.214600,1169.476562 
	C1090.531860,1182.250122 1103.786011,1195.089355 1116.845947,1208.159668 
	C1107.677368,1217.029175 1098.729126,1225.640625 1089.460938,1234.142578 
	C1088.375000,1233.401367 1087.544922,1232.833008 1086.852539,1232.129028 
	C1068.519165,1213.487061 1050.178833,1194.851807 1031.896729,1176.159546 
	C1028.454102,1172.639526 1024.613037,1169.847412 1019.571045,1171.330566 
	C1015.877502,1172.417114 1014.216248,1171.010864 1012.254456,1168.283813 
	C1005.767883,1159.266724 997.228821,1153.224609 985.979492,1151.783325 
	C982.798828,1151.375854 981.593262,1149.889771 980.777771,1146.880859 
	C976.107483,1129.648926 956.084290,1115.874756 939.257629,1118.463013 
	C935.430542,1119.051514 933.786011,1117.854858 931.712402,1114.859741 
	C922.322327,1101.296509 910.239075,1092.532471 892.645325,1095.196411 
	C889.513977,1095.670410 888.613647,1094.345703 887.796326,1091.765503 
	C883.320007,1077.633911 873.268555,1069.110962 859.290039,1065.717651 
	C846.617615,1062.641479 834.969421,1064.366211 826.212341,1075.835693 
	C820.259705,1083.632080 813.385803,1090.719116 807.109436,1098.277466 
	C804.676575,1101.207397 802.762634,1101.574829 799.780762,1098.923584 
	C789.330566,1089.631836 778.695984,1080.547363 768.131409,1071.384277 
z"/>
<path fill="#415BAD" opacity="1.000000" stroke="none" 
	d="
M767.735046,1071.224365 
	C778.695984,1080.547363 789.330566,1089.631836 799.780762,1098.923584 
	C802.762634,1101.574829 804.676575,1101.207397 807.109436,1098.277466 
	C813.385803,1090.719116 820.259705,1083.632080 826.212341,1075.835693 
	C834.969421,1064.366211 846.617615,1062.641479 859.290039,1065.717651 
	C873.268555,1069.110962 883.320007,1077.633911 887.796326,1091.765503 
	C888.613647,1094.345703 889.513977,1095.670410 892.645325,1095.196411 
	C910.239075,1092.532471 922.322327,1101.296509 931.712402,1114.859741 
	C933.786011,1117.854858 935.430542,1119.051514 939.257629,1118.463013 
	C956.084290,1115.874756 976.107483,1129.648926 980.777771,1146.880859 
	C981.593262,1149.889771 982.798828,1151.375854 985.979492,1151.783325 
	C997.228821,1153.224609 1005.767883,1159.266724 1012.254456,1168.283813 
	C1014.216248,1171.010864 1015.877502,1172.417114 1019.571045,1171.330566 
	C1024.613037,1169.847412 1028.454102,1172.639526 1031.896729,1176.159546 
	C1050.178833,1194.851807 1068.519165,1213.487061 1086.852539,1232.129028 
	C1087.544922,1232.833008 1088.375000,1233.401367 1089.791260,1234.353760 
	C1101.085205,1238.667603 1110.083008,1234.849243 1118.140381,1228.276733 
	C1127.534790,1220.613647 1127.404663,1216.401978 1118.339966,1208.665894 
	C1117.968506,1208.348877 1117.493164,1208.153564 1117.066284,1207.901489 
	C1103.786011,1195.089355 1090.531860,1182.250122 1077.214600,1169.476562 
	C1070.612915,1163.144287 1063.860962,1156.968628 1057.255493,1150.640259 
	C1055.711182,1149.160767 1054.248657,1147.489990 1053.159790,1145.662231 
	C1050.621216,1141.401245 1051.232056,1136.639526 1054.463135,1133.228516 
	C1057.590454,1129.927002 1062.573120,1129.022339 1066.836792,1131.417725 
	C1069.114746,1132.697388 1071.140991,1134.520996 1073.054688,1136.337646 
	C1092.839844,1155.119019 1112.578613,1173.949219 1132.794556,1193.215820 
	C1141.865479,1203.945068 1146.924438,1202.217407 1155.054932,1196.944458 
	C1157.798462,1195.165283 1160.066895,1192.582153 1162.347290,1190.172363 
	C1174.283569,1177.558838 1173.935425,1173.488403 1160.169556,1162.837646 
	C1141.347046,1145.467163 1122.514038,1128.107910 1103.719604,1110.707275 
	C1102.026611,1109.139893 1100.294067,1107.486206 1099.079224,1105.558105 
	C1096.433594,1101.358765 1096.993408,1096.508667 1100.142334,1093.099976 
	C1103.337158,1089.642090 1108.621216,1088.750000 1112.953491,1091.217163 
	C1114.802246,1092.269897 1116.420898,1093.780396 1118.007568,1095.231934 
	C1136.787598,1112.410889 1155.541992,1129.618164 1174.776733,1147.262451 
	C1182.773071,1155.084595 1190.218872,1156.296753 1196.359375,1150.608154 
	C1199.211914,1147.965454 1201.705444,1144.682617 1203.551880,1141.254028 
	C1209.081909,1130.986084 1208.217773,1127.692139 1198.987305,1120.217163 
	C1185.871338,1106.981934 1172.685181,1093.815552 1159.653076,1080.498169 
	C1125.669067,1045.770142 1091.741821,1010.986328 1057.819336,976.198059 
	C1052.199097,970.434448 1052.402588,970.599426 1045.605103,974.782166 
	C1031.020508,983.756470 1015.595642,988.916443 998.109375,984.967163 
	C983.294434,981.621338 977.313843,973.040222 980.093567,958.136414 
	C982.323608,946.179871 988.595459,936.213318 995.872925,926.390259 
	C996.962341,924.929443 997.920654,923.770569 999.249756,922.131958 
	C1002.376282,918.102173 1005.131897,914.552002 1007.887451,911.001831 
	C1015.681091,902.197266 1023.222168,893.150879 1031.349365,884.665710 
	C1037.703857,878.031189 1044.785400,872.092896 1051.906738,865.714417 
	C1060.968872,866.567810 1063.578491,869.720520 1062.489258,878.937012 
	C1060.678101,881.570374 1059.184570,883.567810 1057.622192,885.510071 
	C1042.082520,904.828979 1026.456055,924.078857 1011.053833,943.506653 
	C1008.293213,946.988708 1006.076599,951.030579 1004.263733,955.105286 
	C1001.567017,961.166992 1003.529846,963.927795 1010.130127,964.013855 
	C1019.372253,964.134277 1027.426758,960.282715 1034.737061,955.332153 
	C1047.128418,946.940491 1059.174927,938.025696 1071.163086,929.058716 
	C1077.525024,924.300110 1083.800781,923.819397 1088.147827,928.531494 
	C1092.593018,933.349976 1091.806152,940.151062 1085.794434,945.652893 
	C1082.618774,948.559265 1078.943481,950.913940 1075.554077,953.593994 
	C1070.952637,957.232666 1070.813965,960.187378 1074.939941,964.255005 
	C1077.667358,966.943726 1080.416748,969.611084 1083.105225,972.338318 
	C1125.070312,1014.907410 1167.023926,1057.487793 1208.997681,1100.048340 
	C1210.585815,1101.658691 1212.350098,1103.095337 1214.493652,1105.029175 
	C1215.761475,1103.480347 1216.679932,1102.302979 1217.655762,1101.174805 
	C1228.112305,1089.085815 1238.475708,1076.913208 1249.114380,1064.986450 
	C1251.700562,1062.087158 1255.200806,1060.003052 1258.280762,1057.544189 
	C1268.431396,1057.561646 1272.633057,1063.147339 1269.261475,1072.768066 
	C1256.254150,1088.049927 1243.500610,1103.011963 1230.564819,1117.814941 
	C1227.451416,1121.377808 1225.740112,1124.946289 1225.859619,1129.885254 
	C1226.278320,1147.202393 1212.639771,1170.207031 1194.398193,1174.129517 
	C1192.623169,1174.511108 1190.736694,1177.721069 1190.189209,1179.936279 
	C1185.755127,1197.881714 1174.632202,1210.203491 1158.440674,1218.264038 
	C1150.774658,1222.080322 1143.386108,1228.438477 1138.152832,1234.957275 
	C1125.428345,1250.807007 1109.576050,1259.833862 1088.486206,1255.544678 
	C1084.165771,1254.666016 1083.046753,1256.871216 1081.634399,1260.033447 
	C1075.349487,1274.105103 1065.541382,1284.195068 1049.541016,1286.199097 
	C1038.617065,1287.567139 1029.143677,1283.270020 1021.039124,1276.407227 
	C1010.373413,1267.375610 1000.153564,1257.817505 989.737183,1248.491089 
	C988.656128,1247.523193 987.541870,1246.592407 985.817383,1245.104736 
	C981.498169,1250.867676 977.231262,1256.143799 973.420776,1261.731079 
	C965.363220,1273.546265 954.413940,1281.178223 940.092773,1280.353027 
	C924.857056,1279.475220 912.997131,1271.364624 906.195068,1257.328491 
	C904.134277,1253.076172 901.923035,1251.233643 897.076294,1250.705933 
	C879.645691,1248.808228 867.388000,1237.890381 863.435242,1221.230591 
	C862.611694,1217.759888 860.691711,1216.764282 857.625916,1216.242920 
	C840.315186,1213.298096 828.423462,1202.745361 823.835266,1186.627197 
	C821.239075,1177.506470 817.441101,1173.663208 808.992554,1171.010864 
	C796.113098,1166.967529 781.367798,1147.707397 787.390137,1128.093506 
	C787.878601,1126.502563 788.076416,1124.812500 788.659241,1123.262573 
	C790.037231,1119.597778 788.860107,1117.032471 785.947937,1114.554688 
	C776.685974,1106.674561 767.434021,1098.764648 758.554138,1090.464111 
	C755.793091,1087.883301 754.229126,1084.021729 752.008118,1080.399658 
	C753.025146,1071.225952 758.580566,1067.991821 767.735046,1071.224365 
M839.735474,1142.739136 
	C848.777893,1131.843384 857.843262,1120.966431 866.853394,1110.044067 
	C871.692017,1104.178467 871.905518,1101.441406 868.316528,1094.734131 
	C862.530701,1083.921265 849.463379,1081.846191 841.482788,1090.788818 
	C833.061584,1100.225220 825.036194,1110.014648 816.284668,1120.045532 
	C813.779907,1123.289429 810.335266,1126.183716 808.970154,1129.851807 
	C806.304382,1137.014404 811.042664,1145.705322 818.392822,1149.017212 
	C826.248657,1152.557129 834.625916,1150.175293 839.735474,1142.739136 
M1063.812988,1248.220337 
	C1062.337402,1243.929077 1061.980103,1238.638062 1059.192261,1235.520142 
	C1047.237305,1222.149048 1034.573364,1209.411621 1022.133789,1196.475952 
	C1021.642090,1195.964722 1020.804077,1195.786621 1021.312317,1196.036987 
	C1016.120300,1203.735596 1011.279663,1210.953613 1006.388672,1218.137329 
	C1005.173523,1219.922119 1003.873291,1221.662231 1002.473328,1223.304321 
	C1000.719849,1225.361084 1000.951172,1227.061279 1002.853638,1228.901245 
	C1012.528687,1238.258179 1022.151062,1247.669434 1032.128662,1257.653198 
	C1044.822632,1271.092163 1056.998779,1268.833130 1062.960083,1251.919678 
	C1063.285522,1250.996338 1063.426636,1250.008057 1063.812988,1248.220337 
M933.208923,1234.260376 
	C931.722473,1238.098145 929.757507,1241.827881 928.862305,1245.798950 
	C927.534363,1251.689087 931.400818,1255.734741 935.605103,1258.729004 
	C939.459839,1261.474487 944.255676,1260.815552 947.717163,1257.804077 
	C951.663391,1254.370850 954.850647,1250.065186 958.868774,1245.729858 
	C971.289307,1229.469971 983.879517,1213.335693 996.055664,1196.894897 
	C1001.761963,1189.189819 999.806396,1181.165405 991.689880,1175.338257 
	C984.815491,1170.402832 979.359924,1171.697632 973.157227,1179.839355 
	C969.225586,1185.000122 965.339783,1190.197632 961.520569,1195.442139 
	C952.223999,1208.208252 942.978271,1221.011475 933.208923,1234.260376 
M852.293274,1161.260010 
	C843.442566,1174.044556 843.638977,1179.190796 853.348938,1188.925537 
	C861.788757,1197.386963 870.304688,1196.366699 877.603333,1185.654175 
	C890.289673,1168.725220 902.937317,1151.766968 915.700928,1134.896484 
	C917.794434,1132.129395 918.233582,1129.511230 916.330811,1126.664429 
	C907.354004,1113.233887 895.747498,1110.340332 884.573303,1122.299561 
	C873.229431,1134.440186 863.363464,1147.961670 852.293274,1161.260010 
M915.637329,1221.689331 
	C929.991943,1202.489014 944.464600,1183.374878 958.595398,1164.011230 
	C961.227600,1160.404419 963.847900,1156.158447 961.939880,1151.038696 
	C959.646973,1144.886230 950.427856,1138.280762 943.937378,1138.564087 
	C942.259033,1138.637329 940.282471,1139.448608 939.048584,1140.580933 
	C936.370972,1143.037842 933.821960,1145.729126 931.680969,1148.660889 
	C918.734070,1166.390991 905.916931,1184.215698 892.544128,1202.480835 
	C890.864929,1207.268188 888.390747,1211.941772 887.685486,1216.868530 
	C886.513733,1225.055054 890.235535,1229.348633 898.385681,1230.601440 
	C905.925354,1231.760132 910.760376,1227.339722 915.637329,1221.689331 
z"/>
<path fill="#B0E0E9" opacity="1.000000" stroke="none" 
	d="
M1007.656006,910.783203 
	C1005.131897,914.552002 1002.376282,918.102173 999.342346,921.823486 
	C996.644653,916.011658 996.943054,910.625671 1002.767578,906.191711 
	C1004.503906,907.515015 1005.964233,909.039795 1007.656006,910.783203 
z"/>
<path fill="#73C8D2" opacity="1.000000" stroke="none" 
	d="
M1258.256836,1057.256104 
	C1255.200806,1060.003052 1251.700562,1062.087158 1249.114380,1064.986450 
	C1238.475708,1076.913208 1228.112305,1089.085815 1217.655762,1101.174805 
	C1216.679932,1102.302979 1215.761475,1103.480347 1214.493652,1105.029175 
	C1212.350098,1103.095337 1210.585815,1101.658691 1208.997681,1100.048340 
	C1167.023926,1057.487793 1125.070312,1014.907410 1083.105225,972.338318 
	C1080.416748,969.611084 1077.667358,966.943726 1074.939941,964.255005 
	C1070.813965,960.187378 1070.952637,957.232666 1075.554077,953.593994 
	C1078.943481,950.913940 1082.618774,948.559265 1085.794434,945.652893 
	C1091.806152,940.151062 1092.593018,933.349976 1088.147827,928.531494 
	C1083.800781,923.819397 1077.525024,924.300110 1071.163086,929.058716 
	C1059.174927,938.025696 1047.128418,946.940491 1034.737061,955.332153 
	C1027.426758,960.282715 1019.372253,964.134277 1010.130127,964.013855 
	C1003.529846,963.927795 1001.567017,961.166992 1004.263733,955.105286 
	C1006.076599,951.030579 1008.293213,946.988708 1011.053833,943.506653 
	C1026.456055,924.078857 1042.082520,904.828979 1057.622192,885.510071 
	C1059.184570,883.567810 1060.678101,881.570374 1062.411377,879.374268 
	C1066.952148,875.330139 1071.598267,871.807129 1075.557861,867.632996 
	C1086.328491,856.278625 1096.772461,844.615112 1107.411621,833.134827 
	C1132.765747,805.776245 1158.143066,778.438782 1183.540161,751.119995 
	C1198.280762,735.264099 1213.107056,719.487793 1227.839966,703.624878 
	C1238.718506,691.912048 1249.138550,679.746216 1260.446045,668.467041 
	C1270.916382,658.022949 1281.750610,647.792297 1293.390381,638.704712 
	C1314.378052,622.319031 1335.724365,606.337219 1357.567383,591.114380 
	C1407.727539,556.157227 1471.867798,565.055847 1512.969849,600.282043 
	C1531.282959,615.977112 1544.270752,635.144897 1552.031006,657.871338 
	C1553.356689,661.753357 1553.823242,665.973572 1554.334839,670.081421 
	C1558.042969,699.855591 1552.148438,727.694519 1535.340576,752.498596 
	C1527.274780,764.401550 1517.291016,775.084045 1507.576538,785.774780 
	C1484.059814,811.654907 1460.200684,837.224060 1436.461060,862.901367 
	C1423.233643,877.208313 1409.951172,891.464294 1396.725586,905.772949 
	C1373.328369,931.086548 1349.983521,956.448669 1326.563843,981.741516 
	C1308.008057,1001.781494 1289.318237,1021.697754 1270.812622,1041.783936 
	C1266.365356,1046.611084 1262.412842,1051.894409 1258.256836,1057.256104 
z"/>
<path fill="#8FD4E0" opacity="1.000000" stroke="none" 
	d="
M1159.894531,1163.051514 
	C1173.935425,1173.488403 1174.283569,1177.558838 1162.347290,1190.172363 
	C1160.066895,1192.582153 1157.798462,1195.165283 1155.054932,1196.944458 
	C1146.924438,1202.217407 1141.865479,1203.945068 1133.084106,1193.381104 
	C1141.812744,1183.152710 1150.716064,1173.208984 1159.894531,1163.051514 
z"/>
<path fill="#8FD4E0" opacity="1.000000" stroke="none" 
	d="
M1198.867676,1120.520264 
	C1208.217773,1127.692139 1209.081909,1130.986084 1203.551880,1141.254028 
	C1201.705444,1144.682617 1199.211914,1147.965454 1196.359375,1150.608154 
	C1190.218872,1156.296753 1182.773071,1155.084595 1175.067017,1147.428711 
	C1181.481445,1140.017700 1188.094604,1132.898804 1194.665161,1125.740845 
	C1196.104126,1124.173340 1197.391113,1122.466309 1198.867676,1120.520264 
z"/>
<path fill="#8FD4E0" opacity="1.000000" stroke="none" 
	d="
M1116.845947,1208.159668 
	C1117.493164,1208.153564 1117.968506,1208.348877 1118.339966,1208.665894 
	C1127.404663,1216.401978 1127.534790,1220.613647 1118.140381,1228.276733 
	C1110.083008,1234.849243 1101.085205,1238.667603 1090.111206,1234.463379 
	C1098.729126,1225.640625 1107.677368,1217.029175 1116.845947,1208.159668 
z"/>
<path fill="#72C7D2" opacity="1.000000" stroke="none" 
	d="
M893.056396,1202.008789 
	C905.916931,1184.215698 918.734070,1166.390991 931.680969,1148.660889 
	C933.821960,1145.729126 936.370972,1143.037842 939.048584,1140.580933 
	C940.282471,1139.448608 942.259033,1138.637329 943.937378,1138.564087 
	C950.427856,1138.280762 959.646973,1144.886230 961.939880,1151.038696 
	C963.847900,1156.158447 961.227600,1160.404419 958.595398,1164.011230 
	C944.464600,1183.374878 929.991943,1202.489014 915.082153,1221.685303 
	C907.370178,1215.123901 900.213318,1208.566284 893.056396,1202.008789 
z"/>
<path fill="#72C7D2" opacity="1.000000" stroke="none" 
	d="
M852.850281,1160.878540 
	C863.363464,1147.961670 873.229431,1134.440186 884.573303,1122.299561 
	C895.747498,1110.340332 907.354004,1113.233887 916.330811,1126.664429 
	C918.233582,1129.511230 917.794434,1132.129395 915.700928,1134.896484 
	C902.937317,1151.766968 890.289673,1168.725220 877.145813,1185.594238 
	C868.742249,1177.315796 860.796265,1169.097168 852.850281,1160.878540 
z"/>
<path fill="#72C7D2" opacity="1.000000" stroke="none" 
	d="
M933.712097,1233.799683 
	C942.978271,1221.011475 952.223999,1208.208252 961.520569,1195.442139 
	C965.339783,1190.197632 969.225586,1185.000122 973.157227,1179.839355 
	C979.359924,1171.697632 984.815491,1170.402832 991.689880,1175.338257 
	C999.806396,1181.165405 1001.761963,1189.189819 996.055664,1196.894897 
	C983.879517,1213.335693 971.289307,1229.469971 958.276001,1245.778320 
	C949.692871,1241.817871 941.702454,1237.808838 933.712097,1233.799683 
z"/>
<path fill="#72C7D2" opacity="1.000000" stroke="none" 
	d="
M1031.791992,1257.061646 
	C1022.151062,1247.669434 1012.528687,1238.258179 1002.853638,1228.901245 
	C1000.951172,1227.061279 1000.719849,1225.361084 1002.473328,1223.304321 
	C1003.873291,1221.662231 1005.173523,1219.922119 1006.388672,1218.137329 
	C1011.279663,1210.953613 1016.120300,1203.735596 1021.312317,1196.036987 
	C1020.804077,1195.786621 1021.642090,1195.964722 1022.133789,1196.475952 
	C1034.573364,1209.411621 1047.237305,1222.149048 1059.192261,1235.520142 
	C1061.980103,1238.638062 1062.337402,1243.929077 1063.374023,1248.693970 
	C1052.553955,1251.798950 1042.172974,1254.430298 1031.791992,1257.061646 
z"/>
<path fill="#72C7D2" opacity="1.000000" stroke="none" 
	d="
M816.837891,1119.649902 
	C825.036194,1110.014648 833.061584,1100.225220 841.482788,1090.788818 
	C849.463379,1081.846191 862.530701,1083.921265 868.316528,1094.734131 
	C871.905518,1101.441406 871.692017,1104.178467 866.853394,1110.044067 
	C857.843262,1120.966431 848.777893,1131.843384 839.177795,1142.722168 
	C831.359375,1135.020142 824.098633,1127.335083 816.837891,1119.649902 
z"/>
<path fill="#8FD4E0" opacity="1.000000" stroke="none" 
	d="
M852.571777,1161.069336 
	C860.796265,1169.097168 868.742249,1177.315796 876.890198,1185.807617 
	C870.304688,1196.366699 861.788757,1197.386963 853.348938,1188.925537 
	C843.638977,1179.190796 843.442566,1174.044556 852.571777,1161.069336 
z"/>
<path fill="#8FD4E0" opacity="1.000000" stroke="none" 
	d="
M816.561279,1119.847656 
	C824.098633,1127.335083 831.359375,1135.020142 838.903076,1142.905273 
	C834.625916,1150.175293 826.248657,1152.557129 818.392822,1149.017212 
	C811.042664,1145.705322 806.304382,1137.014404 808.970154,1129.851807 
	C810.335266,1126.183716 813.779907,1123.289429 816.561279,1119.847656 
z"/>
<path fill="#8FD4E0" opacity="1.000000" stroke="none" 
	d="
M933.460510,1234.030029 
	C941.702454,1237.808838 949.692871,1241.817871 958.025513,1245.982788 
	C954.850647,1250.065186 951.663391,1254.370850 947.717163,1257.804077 
	C944.255676,1260.815552 939.459839,1261.474487 935.605103,1258.729004 
	C931.400818,1255.734741 927.534363,1251.689087 928.862305,1245.798950 
	C929.757507,1241.827881 931.722473,1238.098145 933.460510,1234.030029 
z"/>
<path fill="#8FD4E0" opacity="1.000000" stroke="none" 
	d="
M892.800293,1202.244873 
	C900.213318,1208.566284 907.370178,1215.123901 914.807861,1221.872925 
	C910.760376,1227.339722 905.925354,1231.760132 898.385681,1230.601440 
	C890.235535,1229.348633 886.513733,1225.055054 887.685486,1216.868530 
	C888.390747,1211.941772 890.864929,1207.268188 892.800293,1202.244873 
z"/>
<path fill="#8FD4E0" opacity="1.000000" stroke="none" 
	d="
M1031.960327,1257.357422 
	C1042.172974,1254.430298 1052.553955,1251.798950 1063.294312,1249.108765 
	C1063.426636,1250.008057 1063.285522,1250.996338 1062.960083,1251.919678 
	C1056.998779,1268.833130 1044.822632,1271.092163 1031.960327,1257.357422 
z"/>
</svg>