<svg version="1.1" id="Layer_1" xmlns="http://www.w3.org/2000/svg" xmlns:xlink="http://www.w3.org/1999/xlink" x="0px" y="0px"
	 width="100%" viewBox="0 0 2048 2048" enable-background="new 0 0 2048 2048" xml:space="preserve">
<path fill="#405AAD" opacity="1.000000" stroke="none" 
	d="
M1916.000000,2049.000000 
	C1277.333374,2049.000000 639.166687,2049.000000 1.000000,2049.000000 
	C1.000000,1366.333374 1.000000,683.666687 1.000000,1.000000 
	C683.666687,1.000000 1366.333374,1.000000 2049.000000,1.000000 
	C2049.000000,683.666687 2049.000000,1366.333374 2049.000000,2049.000000 
	C2004.833374,2049.000000 1960.666626,2049.000000 1916.000000,2049.000000 
M408.063721,1080.701294 
	C412.139954,1093.265991 421.167267,1100.431274 433.857635,1101.834473 
	C445.153290,1103.083496 454.592682,1098.363037 461.264069,1088.837158 
	C465.439026,1082.875732 466.740692,1076.099365 466.742279,1068.993286 
	C466.751038,1029.178467 466.764740,989.363525 466.688690,949.548828 
	C466.681427,945.750977 466.366333,941.899292 465.682190,938.166504 
	C462.723633,922.023743 445.110718,911.344666 429.315369,915.693115 
	C420.134003,918.220764 412.847961,923.717163 406.431458,930.224121 
	C391.938263,944.921814 377.853424,960.022278 362.963989,975.120605 
	C359.291443,977.756592 355.618896,980.392578 351.351227,982.733154 
	C347.534882,978.563049 343.718536,974.393005 339.792847,969.526123 
	C338.142609,968.040222 336.492371,966.554321 334.238495,964.789001 
	C329.270599,959.636169 324.394867,954.390503 319.314880,949.350647 
	C309.759155,939.870544 300.867401,929.495422 290.281433,921.331238 
	C273.546265,908.424927 248.198502,917.460999 243.058914,937.639648 
	C241.469528,943.879822 242.212296,950.752258 242.153107,957.337585 
	C241.817902,994.633240 241.511276,1031.929443 241.355576,1069.226196 
	C241.338486,1073.318481 241.856400,1077.553345 242.966248,1081.484863 
	C246.901123,1095.423828 260.226379,1104.456665 274.330627,1103.146606 
	C288.194885,1101.858887 299.381592,1090.579956 301.841125,1075.583008 
	C302.224426,1073.515503 302.922516,1071.450684 302.939636,1069.380249 
	C303.045563,1056.561279 302.964386,1043.741089 303.040985,1030.921875 
	C303.051727,1029.120117 303.585785,1027.321655 303.877594,1025.521606 
	C304.338043,1025.428833 304.798462,1025.335938 305.258911,1025.243042 
	C306.106720,1026.477173 307.698395,1027.721924 307.680847,1028.943481 
	C307.571625,1036.546021 313.916046,1040.113647 317.923706,1044.776245 
	C322.368500,1049.947510 328.487061,1053.663574 333.781464,1058.126343 
	C337.937866,1061.630005 342.963135,1062.382446 346.848694,1058.678833 
	C350.342957,1055.347900 352.408203,1057.230469 355.455200,1058.920532 
	C358.185303,1060.434814 362.126129,1062.429199 364.446106,1061.499756 
	C370.408081,1059.110840 375.773163,1055.227295 381.353302,1051.901855 
	C381.746002,1051.667725 381.901703,1051.068481 382.243073,1050.711060 
	C385.889282,1046.893066 389.171692,1042.592041 393.320923,1039.430298 
	C397.033752,1036.600952 399.472229,1033.619385 400.130035,1028.991943 
	C400.653503,1025.309326 402.635620,1022.848022 406.993195,1023.938049 
	C406.966339,1041.967285 406.939484,1059.996582 406.680878,1078.402954 
	C407.031250,1078.944336 407.381622,1079.485718 408.063721,1080.701294 
M1634.830811,1084.446777 
	C1634.831055,1054.953247 1635.010376,1025.457642 1634.690918,995.967529 
	C1634.621216,989.526550 1637.061279,985.216797 1641.790771,981.519775 
	C1651.231934,974.139771 1661.620850,971.932617 1672.713135,976.765198 
	C1683.630127,981.521240 1685.269775,991.387390 1685.125366,1001.895691 
	C1685.079468,1005.227661 1685.118896,1008.560791 1685.119019,1011.893433 
	C1685.119995,1037.554443 1685.197388,1063.216064 1685.045898,1088.876099 
	C1685.020630,1093.143555 1686.216919,1094.894897 1690.701050,1094.710327 
	C1697.854004,1094.416016 1705.027954,1094.640625 1712.193115,1094.632324 
	C1719.648193,1094.623535 1719.667114,1094.616455 1719.669189,1087.183472 
	C1719.677612,1056.190186 1719.771362,1025.196411 1719.581421,994.204285 
	C1719.548462,988.840271 1721.286255,984.757019 1725.387329,981.666321 
	C1728.028931,979.675598 1730.805542,977.692871 1733.817993,976.393372 
	C1751.939819,968.575745 1768.597900,979.084778 1769.392334,998.711853 
	C1769.527100,1002.040283 1769.530151,1005.375488 1769.531616,1008.707581 
	C1769.543091,1035.368408 1769.622070,1062.029785 1769.461670,1088.689697 
	C1769.434204,1093.255127 1770.897461,1094.896362 1775.503296,1094.714844 
	C1783.156372,1094.413208 1790.838135,1094.418823 1798.491943,1094.713135 
	C1803.057129,1094.888550 1804.618408,1093.328247 1804.564331,1088.719360 
	C1804.359741,1071.225586 1804.585205,1053.727173 1804.454956,1036.231934 
	C1804.339722,1020.745361 1804.351074,1005.241577 1803.586426,989.781067 
	C1802.946167,976.834045 1797.844849,965.568970 1787.909668,956.841125 
	C1769.924805,941.041504 1734.667358,941.240356 1715.417603,957.474976 
	C1712.460938,959.968445 1710.766113,959.914124 1707.932617,957.456787 
	C1691.535645,943.236816 1653.453125,938.635498 1634.276245,957.414734 
	C1632.025146,959.619080 1629.908936,959.552734 1628.940552,956.536255 
	C1626.276855,948.239014 1620.315063,946.507202 1612.587280,947.540955 
	C1610.295166,947.847473 1607.918335,947.728516 1605.597290,947.564880 
	C1601.840942,947.299988 1600.210327,948.648254 1600.218506,952.669739 
	C1600.311890,998.326233 1600.301270,1043.983032 1600.238281,1089.639648 
	C1600.233154,1093.246948 1601.518677,1094.760254 1605.209351,1094.671753 
	C1612.037231,1094.507935 1618.871948,1094.646973 1625.703735,1094.630737 
	C1635.645752,1094.607056 1634.787842,1095.434814 1634.830811,1084.446777 
M769.533325,1057.395020 
	C762.183960,1060.709351 755.127258,1065.380127 747.421570,1067.042969 
	C733.318787,1070.085938 719.106506,1069.388916 706.878174,1060.099854 
	C697.723206,1053.145508 693.659790,1043.617920 693.278992,1031.694702 
	C696.202026,1031.694702 698.342224,1031.694702 700.482483,1031.694702 
	C731.134949,1031.694458 761.787354,1031.676880 792.439758,1031.722656 
	C795.289673,1031.726929 797.509827,1031.670410 798.314392,1028.035156 
	C802.714844,1008.154602 800.224304,989.436707 788.216614,972.766235 
	C759.197937,932.479004 693.329590,936.765320 667.924622,980.649414 
	C654.980408,1003.009155 654.147461,1027.020020 661.380615,1051.246704 
	C668.289062,1074.385742 684.297729,1088.870239 707.618469,1094.498779 
	C727.113831,1099.204224 746.711121,1098.060425 765.806458,1091.865479 
	C770.960449,1090.193359 775.727966,1087.225342 780.490173,1084.529419 
	C781.575867,1083.914795 782.835571,1081.496582 782.436279,1080.697021 
	C778.516968,1072.848755 774.263489,1065.167236 769.533325,1057.395020 
M621.218811,964.285461 
	C589.871216,934.931580 537.368652,939.732300 512.193848,974.494141 
	C495.450409,997.613770 494.130371,1023.465881 501.209045,1049.921265 
	C507.611176,1073.848145 523.966797,1088.728760 547.885193,1094.516113 
	C567.202759,1099.190186 586.637512,1098.064819 605.573792,1091.981934 
	C610.886536,1090.275269 615.804260,1087.235352 620.720764,1084.481201 
	C621.781433,1083.886963 622.956604,1081.465454 622.551453,1080.603271 
	C618.824158,1072.670288 614.760437,1064.895508 610.669617,1056.828003 
	C609.204163,1057.663818 608.326111,1058.081177 607.536804,1058.626953 
	C590.304565,1070.545288 571.857117,1071.533447 552.993774,1063.698120 
	C540.489502,1058.504150 532.088745,1043.360107 534.322815,1031.694702 
	C536.204407,1031.694702 538.175781,1031.694702 540.147156,1031.694702 
	C570.956909,1031.694458 601.767029,1031.619263 632.575867,1031.785034 
	C636.591675,1031.806641 638.057983,1030.423584 638.795410,1026.633057 
	C643.365967,1003.138489 638.436279,982.355408 621.218811,964.285461 
M1412.968140,973.496216 
	C1410.874634,970.909119 1408.953491,968.157227 1406.661499,965.759949 
	C1376.953613,934.686768 1321.435425,939.046082 1295.759888,974.386047 
	C1281.172729,994.463745 1278.765137,1017.058350 1282.573120,1040.655273 
	C1286.393921,1064.331177 1298.807983,1081.893311 1321.365967,1091.422852 
	C1336.885986,1097.979126 1353.153809,1098.156494 1369.538330,1096.502930 
	C1381.419678,1095.303589 1392.768311,1092.251099 1403.084351,1085.904419 
	C1406.319092,1083.914307 1407.528687,1081.796021 1405.555664,1078.162720 
	C1402.297363,1072.163452 1399.252197,1066.047241 1396.181396,1059.947876 
	C1394.961670,1057.525146 1393.518188,1056.694824 1391.120239,1058.557617 
	C1379.278809,1067.757080 1365.525269,1069.129395 1351.274170,1067.946167 
	C1334.922729,1066.588501 1322.232910,1055.799805 1318.341187,1040.317139 
	C1316.487793,1032.943237 1317.364014,1031.770752 1324.839478,1031.768677 
	C1355.157837,1031.760010 1385.476562,1031.692017 1415.794189,1031.846436 
	C1420.064453,1031.868164 1421.915894,1030.603394 1422.828247,1026.266968 
	C1426.772339,1007.521484 1423.525391,990.215637 1412.968140,973.496216 
M1485.166626,945.840393 
	C1477.127808,947.921082 1469.085815,949.989441 1461.052002,952.089539 
	C1458.382080,952.787476 1457.151978,954.219971 1458.049072,957.218445 
	C1459.959229,963.602783 1461.705811,970.038086 1463.409668,976.481506 
	C1464.213257,979.520447 1465.769287,979.543701 1468.609375,978.963013 
	C1477.858154,977.071777 1487.171875,974.776123 1496.532349,974.395203 
	C1503.296753,974.119873 1510.504639,975.753845 1516.922729,978.133057 
	C1525.754883,981.407227 1530.352905,990.874146 1528.177368,998.605957 
	C1527.267578,998.605957 1526.273926,998.752319 1525.336548,998.584106 
	C1510.564209,995.932373 1496.038818,997.720337 1481.835449,1001.743042 
	C1453.126709,1009.874023 1438.406616,1032.216553 1442.738892,1060.496826 
	C1444.532837,1072.206421 1449.549805,1082.115967 1459.943481,1088.519775 
	C1476.154663,1098.507812 1493.650635,1099.802979 1511.381958,1094.186768 
	C1519.083252,1091.747559 1526.005249,1086.848389 1533.727051,1082.834717 
	C1535.100586,1084.641602 1536.934326,1087.396240 1539.106689,1089.851440 
	C1547.861206,1099.745361 1565.108154,1100.044189 1572.787231,1090.317749 
	C1573.827271,1089.000366 1574.449097,1085.738037 1573.636719,1084.825073 
	C1566.346069,1076.633301 1564.775146,1066.710693 1564.522705,1056.412720 
	C1564.146973,1041.090820 1564.675903,1025.718506 1563.619751,1010.450806 
	C1562.844238,999.240845 1560.925781,987.961426 1558.102295,977.079956 
	C1554.704956,963.987854 1545.484863,955.586121 1532.875732,950.637878 
	C1517.675659,944.672913 1501.951172,944.645935 1485.166626,945.840393 
M912.203735,1080.467651 
	C912.203735,1074.576904 912.203735,1068.686157 912.203735,1062.127441 
	C907.935730,1063.841064 904.970337,1065.443481 901.802368,1066.238403 
	C877.551819,1072.322754 867.478271,1064.326660 867.299683,1042.831543 
	C867.125305,1021.837402 867.220947,1000.841125 867.074890,979.846619 
	C867.052246,976.597473 868.191833,975.452637 871.429199,975.492920 
	C881.925598,975.623779 892.425781,975.447327 902.921997,975.583069 
	C906.167847,975.625000 907.417358,974.464294 907.342651,971.225403 
	C907.200500,965.063171 907.121704,958.888062 907.369507,952.732483 
	C907.521179,948.966614 906.116150,947.789978 902.451050,947.854126 
	C892.289490,948.031982 882.120361,947.789001 871.959045,947.974792 
	C868.248718,948.042542 867.003235,946.727356 867.062317,943.061035 
	C867.231445,932.565735 867.137939,922.065918 867.095032,911.567993 
	C867.088074,909.852600 866.814270,908.138184 866.606934,905.774292 
	C855.690247,909.800537 845.508850,913.414124 835.486877,917.426208 
	C834.199158,917.941711 833.133728,920.482178 833.012268,922.160278 
	C832.676453,926.801758 832.894226,931.483459 832.894104,936.149231 
	C832.893738,947.796204 832.893860,947.796204 821.482483,947.916687 
	C820.982605,947.921997 820.479370,947.959961 819.983337,947.917236 
	C816.932861,947.654846 815.808838,949.107239 815.923340,952.072205 
	C816.064758,955.732788 815.955139,959.402893 815.955078,963.068909 
	C815.954773,975.199036 815.955017,975.198975 828.166016,975.539185 
	C828.332581,975.543823 828.501282,975.560364 828.665588,975.541443 
	C831.992432,975.157715 833.029602,976.769348 832.931641,979.928772 
	C832.766479,985.255920 832.854065,990.592285 832.900513,995.924255 
	C833.080505,1016.580811 832.732056,1037.261597 833.642639,1057.886597 
	C834.503479,1077.384644 846.196472,1091.968384 864.616516,1095.168457 
	C876.058960,1097.156494 888.154358,1096.459717 899.855042,1095.594116 
	C912.257385,1094.676636 912.204834,1093.966187 912.203735,1080.467651 
M1131.711182,1066.616699 
	C1131.061646,1066.765137 1130.415771,1066.932983 1129.761841,1067.058960 
	C1110.010010,1070.865479 1099.606812,1064.347046 1099.307007,1045.356323 
	C1098.962769,1023.543457 1098.992432,1001.724792 1098.797241,979.909241 
	C1098.763306,976.106628 1101.041016,975.665588 1104.031982,975.680420 
	C1114.026733,975.730164 1124.023560,975.585510 1134.016113,975.740723 
	C1137.709473,975.798035 1139.049072,974.431519 1138.919556,970.758240 
	C1138.708374,964.768677 1138.678101,958.758423 1138.929321,952.771912 
	C1139.095459,948.813843 1137.558228,947.470886 1133.711060,947.534851 
	C1124.218506,947.692688 1114.721191,947.605408 1105.226074,947.566711 
	C1099.155762,947.541931 1098.822876,947.199890 1098.800415,940.956360 
	C1098.764648,930.961426 1098.691650,920.965088 1098.828857,910.971924 
	C1098.887939,906.671875 1097.359985,905.644104 1093.389526,907.200134 
	C1085.016724,910.481384 1076.594116,913.643188 1068.125610,916.668457 
	C1065.347656,917.660950 1064.121826,919.227173 1064.186279,922.174194 
	C1064.302856,927.502258 1064.209595,932.834839 1064.206787,938.165527 
	C1064.202026,947.557190 1064.203003,947.557190 1055.060913,947.578491 
	C1054.228027,947.580444 1053.387817,947.654968 1052.563354,947.572876 
	C1048.771362,947.195007 1047.042236,948.667908 1047.258423,952.679016 
	C1047.500122,957.163635 1047.285522,961.671753 1047.313599,966.169250 
	C1047.379028,976.652588 1046.268677,975.634583 1056.568726,975.689148 
	C1064.188965,975.729614 1064.191895,975.713623 1064.205444,983.509399 
	C1064.212036,987.340820 1064.190430,991.172363 1064.209229,995.003723 
	C1064.309082,1015.324768 1063.914917,1035.664185 1064.660156,1055.961792 
	C1065.456665,1077.647095 1077.848633,1092.196533 1098.204102,1096.133057 
	C1111.955200,1098.792358 1125.727173,1097.381592 1139.364990,1094.517822 
	C1142.759644,1093.804932 1143.950439,1091.854858 1143.884399,1088.492188 
	C1143.740601,1081.165405 1143.868896,1073.833496 1143.806152,1066.504395 
	C1143.795532,1065.266846 1143.385620,1064.032715 1143.064453,1062.271729 
	C1139.208374,1063.770630 1135.846924,1065.077271 1131.711182,1066.616699 
M1003.765564,947.815125 
	C987.027893,944.179688 970.548767,943.689575 954.161194,950.119202 
	C923.788391,962.035767 923.510986,995.996704 941.120178,1013.087402 
	C949.420166,1021.142944 959.568970,1026.011475 969.841125,1030.887817 
	C977.011902,1034.291870 984.170532,1038.025879 990.564819,1042.671997 
	C996.492798,1046.979614 997.781372,1053.834351 995.463989,1060.742065 
	C993.212708,1067.453125 987.302185,1068.957520 981.023315,1069.399780 
	C968.471863,1070.284180 956.873901,1067.515381 946.429504,1060.336182 
	C944.296387,1058.869995 942.177917,1057.187256 940.531982,1060.998535 
	C937.559692,1067.880859 934.551697,1074.749878 931.405823,1081.553955 
	C930.063660,1084.456787 931.376465,1085.773682 933.747192,1087.045776 
	C957.722168,1099.911133 982.607422,1101.123535 1007.540222,1091.107422 
	C1034.568970,1080.249390 1041.203247,1044.418579 1020.716675,1023.691772 
	C1012.269775,1015.145935 1001.257690,1011.099854 990.611694,1006.344482 
	C984.089783,1003.431335 977.584778,1000.370239 971.447693,996.740601 
	C966.397095,993.753601 964.637878,988.723755 965.822266,982.874451 
	C966.924683,977.430359 970.721130,974.221375 975.785278,973.674438 
	C981.832336,973.021362 988.182922,972.747375 994.093262,973.896851 
	C1000.960022,975.232483 1007.491821,978.290100 1014.785767,980.813660 
	C1017.483215,973.399536 1020.441467,965.654175 1022.986938,957.775330 
	C1023.299194,956.809021 1021.701843,954.421387 1020.476929,953.902832 
	C1015.272583,951.699463 1009.875366,949.951965 1003.765564,947.815125 
M1170.345215,1003.500000 
	C1170.345703,1031.812744 1170.435547,1060.126099 1170.259644,1088.437744 
	C1170.229980,1093.227905 1171.750977,1094.935303 1176.559814,1094.716797 
	C1183.706543,1094.391968 1190.878906,1094.649780 1198.040405,1094.628418 
	C1204.830078,1094.608154 1204.869385,1094.575073 1204.872925,1087.537354 
	C1204.885132,1063.221680 1204.751465,1038.904785 1204.975586,1014.591248 
	C1205.027100,1008.987366 1205.643188,1003.221985 1207.102051,997.829163 
	C1211.436768,981.806946 1225.471802,972.249939 1240.835327,974.726807 
	C1245.675659,975.507080 1250.316040,977.526062 1255.623535,979.154724 
	C1259.627563,971.125549 1263.555420,962.890076 1267.833374,954.840759 
	C1269.634521,951.451660 1269.089600,949.632141 1265.461792,948.585510 
	C1245.831665,942.922241 1226.991455,942.989502 1209.922363,956.144226 
	C1208.700684,957.085693 1207.411133,957.939026 1205.431274,959.346558 
	C1205.176758,956.892517 1204.766968,955.431091 1204.927246,954.035034 
	C1205.491089,949.121155 1203.289917,947.661377 1198.591675,947.861877 
	C1191.276978,948.174133 1183.928833,948.180359 1176.614868,947.859436 
	C1171.893311,947.652222 1170.174805,949.141235 1170.251099,954.036743 
	C1170.502686,970.187744 1170.346313,986.345093 1170.345215,1003.500000 
z"/>
<path fill="#72C6D1" opacity="1.000000" stroke="none" 
	d="
M1634.830566,1084.934082 
	C1634.787842,1095.434814 1635.645752,1094.607056 1625.703735,1094.630737 
	C1618.871948,1094.646973 1612.037231,1094.507935 1605.209351,1094.671753 
	C1601.518677,1094.760254 1600.233154,1093.246948 1600.238281,1089.639648 
	C1600.301270,1043.983032 1600.311890,998.326233 1600.218506,952.669739 
	C1600.210327,948.648254 1601.840942,947.299988 1605.597290,947.564880 
	C1607.918335,947.728516 1610.295166,947.847473 1612.587280,947.540955 
	C1620.315063,946.507202 1626.276855,948.239014 1628.940552,956.536255 
	C1629.908936,959.552734 1632.025146,959.619080 1634.276245,957.414734 
	C1653.453125,938.635498 1691.535645,943.236816 1707.932617,957.456787 
	C1710.766113,959.914124 1712.460938,959.968445 1715.417603,957.474976 
	C1734.667358,941.240356 1769.924805,941.041504 1787.909668,956.841125 
	C1797.844849,965.568970 1802.946167,976.834045 1803.586426,989.781067 
	C1804.351074,1005.241577 1804.339722,1020.745361 1804.454956,1036.231934 
	C1804.585205,1053.727173 1804.359741,1071.225586 1804.564331,1088.719360 
	C1804.618408,1093.328247 1803.057129,1094.888550 1798.491943,1094.713135 
	C1790.838135,1094.418823 1783.156372,1094.413208 1775.503296,1094.714844 
	C1770.897461,1094.896362 1769.434204,1093.255127 1769.461670,1088.689697 
	C1769.622070,1062.029785 1769.543091,1035.368408 1769.531616,1008.707581 
	C1769.530151,1005.375488 1769.527100,1002.040283 1769.392334,998.711853 
	C1768.597900,979.084778 1751.939819,968.575745 1733.817993,976.393372 
	C1730.805542,977.692871 1728.028931,979.675598 1725.387329,981.666321 
	C1721.286255,984.757019 1719.548462,988.840271 1719.581421,994.204285 
	C1719.771362,1025.196411 1719.677612,1056.190186 1719.669189,1087.183472 
	C1719.667114,1094.616455 1719.648193,1094.623535 1712.193115,1094.632324 
	C1705.027954,1094.640625 1697.854004,1094.416016 1690.701050,1094.710327 
	C1686.216919,1094.894897 1685.020630,1093.143555 1685.045898,1088.876099 
	C1685.197388,1063.216064 1685.119995,1037.554443 1685.119019,1011.893433 
	C1685.118896,1008.560791 1685.079468,1005.227661 1685.125366,1001.895691 
	C1685.269775,991.387390 1683.630127,981.521240 1672.713135,976.765198 
	C1661.620850,971.932617 1651.231934,974.139771 1641.790771,981.519775 
	C1637.061279,985.216797 1634.621216,989.526550 1634.690918,995.967529 
	C1635.010376,1025.457642 1634.831055,1054.953247 1634.830566,1084.934082 
z"/>
<path fill="#FBFBFD" opacity="1.000000" stroke="none" 
	d="
M769.819092,1057.416748 
	C774.263489,1065.167236 778.516968,1072.848755 782.436279,1080.697021 
	C782.835571,1081.496582 781.575867,1083.914795 780.490173,1084.529419 
	C775.727966,1087.225342 770.960449,1090.193359 765.806458,1091.865479 
	C746.711121,1098.060425 727.113831,1099.204224 707.618469,1094.498779 
	C684.297729,1088.870239 668.289062,1074.385742 661.380615,1051.246704 
	C654.147461,1027.020020 654.980408,1003.009155 667.924622,980.649414 
	C693.329590,936.765320 759.197937,932.479004 788.216614,972.766235 
	C800.224304,989.436707 802.714844,1008.154602 798.314392,1028.035156 
	C797.509827,1031.670410 795.289673,1031.726929 792.439758,1031.722656 
	C761.787354,1031.676880 731.134949,1031.694458 700.482483,1031.694702 
	C698.342224,1031.694702 696.202026,1031.694702 693.278992,1031.694702 
	C693.659790,1043.617920 697.723206,1053.145508 706.878174,1060.099854 
	C719.106506,1069.388916 733.318787,1070.085938 747.421570,1067.042969 
	C755.127258,1065.380127 762.183960,1060.709351 769.819092,1057.416748 
M746.499207,1005.978821 
	C752.755615,1005.978821 759.011963,1005.978821 765.205078,1005.978821 
	C766.012573,987.112610 751.689331,974.090576 730.897888,973.945862 
	C711.394165,973.810120 694.678040,988.517761 695.276184,1005.978821 
	C711.996277,1005.978821 728.747925,1005.978821 746.499207,1005.978821 
z"/>
<path fill="#FBFBFD" opacity="1.000000" stroke="none" 
	d="
M621.467102,964.534363 
	C638.436279,982.355408 643.365967,1003.138489 638.795410,1026.633057 
	C638.057983,1030.423584 636.591675,1031.806641 632.575867,1031.785034 
	C601.767029,1031.619263 570.956909,1031.694458 540.147156,1031.694702 
	C538.175781,1031.694702 536.204407,1031.694702 534.322815,1031.694702 
	C532.088745,1043.360107 540.489502,1058.504150 552.993774,1063.698120 
	C571.857117,1071.533447 590.304565,1070.545288 607.536804,1058.626953 
	C608.326111,1058.081177 609.204163,1057.663818 610.669617,1056.828003 
	C614.760437,1064.895508 618.824158,1072.670288 622.551453,1080.603271 
	C622.956604,1081.465454 621.781433,1083.886963 620.720764,1084.481201 
	C615.804260,1087.235352 610.886536,1090.275269 605.573792,1091.981934 
	C586.637512,1098.064819 567.202759,1099.190186 547.885193,1094.516113 
	C523.966797,1088.728760 507.611176,1073.848145 501.209045,1049.921265 
	C494.130371,1023.465881 495.450409,997.613770 512.193848,974.494141 
	C537.368652,939.732300 589.871216,934.931580 621.467102,964.534363 
M583.701965,975.608215 
	C575.486877,973.488220 567.253845,973.230957 559.028198,975.494629 
	C546.067322,979.061401 534.505859,993.859863 535.572510,1005.629272 
	C558.777527,1005.629272 581.996826,1005.629272 605.179626,1005.629272 
	C606.489502,993.108154 598.036682,981.100037 583.701965,975.608215 
z"/>
<path fill="#72C6D1" opacity="1.000000" stroke="none" 
	d="
M1413.169922,973.794983 
	C1423.525391,990.215637 1426.772339,1007.521484 1422.828247,1026.266968 
	C1421.915894,1030.603394 1420.064453,1031.868164 1415.794189,1031.846436 
	C1385.476562,1031.692017 1355.157837,1031.760010 1324.839478,1031.768677 
	C1317.364014,1031.770752 1316.487793,1032.943237 1318.341187,1040.317139 
	C1322.232910,1055.799805 1334.922729,1066.588501 1351.274170,1067.946167 
	C1365.525269,1069.129395 1379.278809,1067.757080 1391.120239,1058.557617 
	C1393.518188,1056.694824 1394.961670,1057.525146 1396.181396,1059.947876 
	C1399.252197,1066.047241 1402.297363,1072.163452 1405.555664,1078.162720 
	C1407.528687,1081.796021 1406.319092,1083.914307 1403.084351,1085.904419 
	C1392.768311,1092.251099 1381.419678,1095.303589 1369.538330,1096.502930 
	C1353.153809,1098.156494 1336.885986,1097.979126 1321.365967,1091.422852 
	C1298.807983,1081.893311 1286.393921,1064.331177 1282.573120,1040.655273 
	C1278.765137,1017.058350 1281.172729,994.463745 1295.759888,974.386047 
	C1321.435425,939.046082 1376.953613,934.686768 1406.661499,965.759949 
	C1408.953491,968.157227 1410.874634,970.909119 1413.169922,973.794983 
M1347.175537,974.397766 
	C1332.182373,977.115662 1323.749634,986.649719 1319.564209,1000.746948 
	C1318.473022,1004.422241 1319.270386,1006.091553 1323.324341,1005.986145 
	C1328.651367,1005.847595 1333.984741,1005.962646 1339.315430,1005.962646 
	C1354.474609,1005.962708 1369.633667,1005.978210 1384.792847,1005.937805 
	C1387.026611,1005.931824 1389.945801,1006.483276 1389.298950,1002.584900 
	C1387.496094,991.718811 1383.106201,982.594299 1372.510742,977.588257 
	C1364.688477,973.892456 1356.444946,973.607666 1347.175537,974.397766 
z"/>
<path fill="#72C6D1" opacity="1.000000" stroke="none" 
	d="
M1485.615479,945.768311 
	C1501.951172,944.645935 1517.675659,944.672913 1532.875732,950.637878 
	C1545.484863,955.586121 1554.704956,963.987854 1558.102295,977.079956 
	C1560.925781,987.961426 1562.844238,999.240845 1563.619751,1010.450806 
	C1564.675903,1025.718506 1564.146973,1041.090820 1564.522705,1056.412720 
	C1564.775146,1066.710693 1566.346069,1076.633301 1573.636719,1084.825073 
	C1574.449097,1085.738037 1573.827271,1089.000366 1572.787231,1090.317749 
	C1565.108154,1100.044189 1547.861206,1099.745361 1539.106689,1089.851440 
	C1536.934326,1087.396240 1535.100586,1084.641602 1533.727051,1082.834717 
	C1526.005249,1086.848389 1519.083252,1091.747559 1511.381958,1094.186768 
	C1493.650635,1099.802979 1476.154663,1098.507812 1459.943481,1088.519775 
	C1449.549805,1082.115967 1444.532837,1072.206421 1442.738892,1060.496826 
	C1438.406616,1032.216553 1453.126709,1009.874023 1481.835449,1001.743042 
	C1496.038818,997.720337 1510.564209,995.932373 1525.336548,998.584106 
	C1526.273926,998.752319 1527.267578,998.605957 1528.177368,998.605957 
	C1530.352905,990.874146 1525.754883,981.407227 1516.922729,978.133057 
	C1510.504639,975.753845 1503.296753,974.119873 1496.532349,974.395203 
	C1487.171875,974.776123 1477.858154,977.071777 1468.609375,978.963013 
	C1465.769287,979.543701 1464.213257,979.520447 1463.409668,976.481506 
	C1461.705811,970.038086 1459.959229,963.602783 1458.049072,957.218445 
	C1457.151978,954.219971 1458.382080,952.787476 1461.052002,952.089539 
	C1469.085815,949.989441 1477.127808,947.921082 1485.615479,945.768311 
M1498.287964,1025.579468 
	C1492.817871,1028.556152 1486.489624,1030.612305 1482.078735,1034.724976 
	C1475.460815,1040.895508 1474.817139,1049.506348 1477.549072,1057.948242 
	C1480.074951,1065.753540 1486.561401,1069.096436 1494.110718,1069.455933 
	C1500.162231,1069.744019 1506.483887,1069.282349 1512.331055,1067.776367 
	C1520.844360,1065.583496 1526.535889,1059.508057 1528.158691,1050.797485 
	C1529.397461,1044.147827 1529.327759,1037.258301 1529.917847,1030.482422 
	C1530.241699,1026.765015 1528.634888,1024.578857 1524.932739,1024.627075 
	C1516.320923,1024.739258 1507.712524,1025.107788 1498.287964,1025.579468 
z"/>
<path fill="#FBFBFD" opacity="1.000000" stroke="none" 
	d="
M912.203552,1080.958008 
	C912.204834,1093.966187 912.257385,1094.676636 899.855042,1095.594116 
	C888.154358,1096.459717 876.058960,1097.156494 864.616516,1095.168457 
	C846.196472,1091.968384 834.503479,1077.384644 833.642639,1057.886597 
	C832.732056,1037.261597 833.080505,1016.580811 832.900513,995.924255 
	C832.854065,990.592285 832.766479,985.255920 832.931641,979.928772 
	C833.029602,976.769348 831.992432,975.157715 828.665588,975.541443 
	C828.501282,975.560364 828.332581,975.543823 828.166016,975.539185 
	C815.955017,975.198975 815.954773,975.199036 815.955078,963.068909 
	C815.955139,959.402893 816.064758,955.732788 815.923340,952.072205 
	C815.808838,949.107239 816.932861,947.654846 819.983337,947.917236 
	C820.479370,947.959961 820.982605,947.921997 821.482483,947.916687 
	C832.893860,947.796204 832.893738,947.796204 832.894104,936.149231 
	C832.894226,931.483459 832.676453,926.801758 833.012268,922.160278 
	C833.133728,920.482178 834.199158,917.941711 835.486877,917.426208 
	C845.508850,913.414124 855.690247,909.800537 866.606934,905.774292 
	C866.814270,908.138184 867.088074,909.852600 867.095032,911.567993 
	C867.137939,922.065918 867.231445,932.565735 867.062317,943.061035 
	C867.003235,946.727356 868.248718,948.042542 871.959045,947.974792 
	C882.120361,947.789001 892.289490,948.031982 902.451050,947.854126 
	C906.116150,947.789978 907.521179,948.966614 907.369507,952.732483 
	C907.121704,958.888062 907.200500,965.063171 907.342651,971.225403 
	C907.417358,974.464294 906.167847,975.625000 902.921997,975.583069 
	C892.425781,975.447327 881.925598,975.623779 871.429199,975.492920 
	C868.191833,975.452637 867.052246,976.597473 867.074890,979.846619 
	C867.220947,1000.841125 867.125305,1021.837402 867.299683,1042.831543 
	C867.478271,1064.326660 877.551819,1072.322754 901.802368,1066.238403 
	C904.970337,1065.443481 907.935730,1063.841064 912.203735,1062.127441 
	C912.203735,1068.686157 912.203735,1074.576904 912.203552,1080.958008 
z"/>
<path fill="#71C5D1" opacity="1.000000" stroke="none" 
	d="
M1132.098389,1066.500244 
	C1135.846924,1065.077271 1139.208374,1063.770630 1143.064453,1062.271729 
	C1143.385620,1064.032715 1143.795532,1065.266846 1143.806152,1066.504395 
	C1143.868896,1073.833496 1143.740601,1081.165405 1143.884399,1088.492188 
	C1143.950439,1091.854858 1142.759644,1093.804932 1139.364990,1094.517822 
	C1125.727173,1097.381592 1111.955200,1098.792358 1098.204102,1096.133057 
	C1077.848633,1092.196533 1065.456665,1077.647095 1064.660156,1055.961792 
	C1063.914917,1035.664185 1064.309082,1015.324768 1064.209229,995.003723 
	C1064.190430,991.172363 1064.212036,987.340820 1064.205444,983.509399 
	C1064.191895,975.713623 1064.188965,975.729614 1056.568726,975.689148 
	C1046.268677,975.634583 1047.379028,976.652588 1047.313599,966.169250 
	C1047.285522,961.671753 1047.500122,957.163635 1047.258423,952.679016 
	C1047.042236,948.667908 1048.771362,947.195007 1052.563354,947.572876 
	C1053.387817,947.654968 1054.228027,947.580444 1055.060913,947.578491 
	C1064.203003,947.557190 1064.202026,947.557190 1064.206787,938.165527 
	C1064.209595,932.834839 1064.302856,927.502258 1064.186279,922.174194 
	C1064.121826,919.227173 1065.347656,917.660950 1068.125610,916.668457 
	C1076.594116,913.643188 1085.016724,910.481384 1093.389526,907.200134 
	C1097.359985,905.644104 1098.887939,906.671875 1098.828857,910.971924 
	C1098.691650,920.965088 1098.764648,930.961426 1098.800415,940.956360 
	C1098.822876,947.199890 1099.155762,947.541931 1105.226074,947.566711 
	C1114.721191,947.605408 1124.218506,947.692688 1133.711060,947.534851 
	C1137.558228,947.470886 1139.095459,948.813843 1138.929321,952.771912 
	C1138.678101,958.758423 1138.708374,964.768677 1138.919556,970.758240 
	C1139.049072,974.431519 1137.709473,975.798035 1134.016113,975.740723 
	C1124.023560,975.585510 1114.026733,975.730164 1104.031982,975.680420 
	C1101.041016,975.665588 1098.763306,976.106628 1098.797241,979.909241 
	C1098.992432,1001.724792 1098.962769,1023.543457 1099.307007,1045.356323 
	C1099.606812,1064.347046 1110.010010,1070.865479 1129.761841,1067.058960 
	C1130.415771,1066.932983 1131.061646,1066.765137 1132.098389,1066.500244 
z"/>
<path fill="#72C6D1" opacity="1.000000" stroke="none" 
	d="
M1004.157104,947.926636 
	C1009.875366,949.951965 1015.272583,951.699463 1020.476929,953.902832 
	C1021.701843,954.421387 1023.299194,956.809021 1022.986938,957.775330 
	C1020.441467,965.654175 1017.483215,973.399536 1014.785767,980.813660 
	C1007.491821,978.290100 1000.960022,975.232483 994.093262,973.896851 
	C988.182922,972.747375 981.832336,973.021362 975.785278,973.674438 
	C970.721130,974.221375 966.924683,977.430359 965.822266,982.874451 
	C964.637878,988.723755 966.397095,993.753601 971.447693,996.740601 
	C977.584778,1000.370239 984.089783,1003.431335 990.611694,1006.344482 
	C1001.257690,1011.099854 1012.269775,1015.145935 1020.716675,1023.691772 
	C1041.203247,1044.418579 1034.568970,1080.249390 1007.540222,1091.107422 
	C982.607422,1101.123535 957.722168,1099.911133 933.747192,1087.045776 
	C931.376465,1085.773682 930.063660,1084.456787 931.405823,1081.553955 
	C934.551697,1074.749878 937.559692,1067.880859 940.531982,1060.998535 
	C942.177917,1057.187256 944.296387,1058.869995 946.429504,1060.336182 
	C956.873901,1067.515381 968.471863,1070.284180 981.023315,1069.399780 
	C987.302185,1068.957520 993.212708,1067.453125 995.463989,1060.742065 
	C997.781372,1053.834351 996.492798,1046.979614 990.564819,1042.671997 
	C984.170532,1038.025879 977.011902,1034.291870 969.841125,1030.887817 
	C959.568970,1026.011475 949.420166,1021.142944 941.120178,1013.087402 
	C923.510986,995.996704 923.788391,962.035767 954.161194,950.119202 
	C970.548767,943.689575 987.027893,944.179688 1004.157104,947.926636 
z"/>
<path fill="#FCFDFE" opacity="1.000000" stroke="none" 
	d="
M301.233093,1076.022217 
	C299.381592,1090.579956 288.194885,1101.858887 274.330627,1103.146606 
	C260.226379,1104.456665 246.901123,1095.423828 242.966248,1081.484863 
	C241.856400,1077.553345 241.338486,1073.318481 241.355576,1069.226196 
	C241.511276,1031.929443 241.817902,994.633240 242.153107,957.337585 
	C242.212296,950.752258 241.469528,943.879822 243.058914,937.639648 
	C248.198502,917.460999 273.546265,908.424927 290.281433,921.331238 
	C300.867401,929.495422 309.759155,939.870544 319.314880,949.350647 
	C324.394867,954.390503 329.270599,959.636169 334.666626,965.235596 
	C336.697235,967.195740 338.299744,968.709290 339.902222,970.222900 
	C343.718536,974.393005 347.534882,978.563049 351.747528,983.181885 
	C353.730560,985.116333 354.671295,986.596741 351.774170,987.946594 
	C350.589111,987.338745 349.568970,986.994141 348.911316,986.304016 
	C333.189850,969.809814 317.617889,953.171387 301.769897,936.800049 
	C294.112701,928.889954 285.920837,921.784973 274.166199,920.241882 
	C260.566589,918.456543 247.340790,929.410706 246.940475,943.109375 
	C246.708740,951.039551 249.963348,957.237366 255.245255,962.730103 
	C271.274963,979.399902 287.308197,996.066589 303.225891,1012.842773 
	C304.292236,1013.966675 304.406921,1015.993591 304.588623,1017.771790 
	C301.622375,1018.076355 301.203735,1019.640625 301.211945,1021.922913 
	C301.276581,1039.955811 301.239166,1057.989014 301.233093,1076.022217 
z"/>
<path fill="#FCFDFE" opacity="1.000000" stroke="none" 
	d="
M363.602478,974.958984 
	C377.853424,960.022278 391.938263,944.921814 406.431458,930.224121 
	C412.847961,923.717163 420.134003,918.220764 429.315369,915.693115 
	C445.110718,911.344666 462.723633,922.023743 465.682190,938.166504 
	C466.366333,941.899292 466.681427,945.750977 466.688690,949.548828 
	C466.764740,989.363525 466.751038,1029.178467 466.742279,1068.993286 
	C466.740692,1076.099365 465.439026,1082.875732 461.264069,1088.837158 
	C454.592682,1098.363037 445.153290,1103.083496 433.857635,1101.834473 
	C421.167267,1100.431274 412.139954,1093.265991 407.911530,1080.083496 
	C407.477112,1078.985596 407.194855,1078.505737 406.912598,1078.025757 
	C406.939484,1059.996582 406.966339,1041.967285 407.019623,1023.082397 
	C406.045197,1019.688660 405.044373,1017.150574 404.155334,1014.313660 
	C406.885773,1010.803894 409.364014,1007.465271 412.146790,1004.403381 
	C426.232239,988.905457 440.486328,973.559937 454.499420,957.997192 
	C462.607208,948.992920 463.334747,937.477661 456.756897,929.358887 
	C448.025452,918.581970 436.208099,915.463379 425.473206,922.167114 
	C417.924164,926.881287 410.545166,932.260620 404.256683,938.515625 
	C392.482147,950.227417 381.600983,962.834290 370.212463,974.941223 
	C368.847046,976.392883 366.638458,977.051453 364.563416,977.834290 
	C364.071625,976.713684 363.837067,975.836304 363.602478,974.958984 
z"/>
<path fill="#72C6D1" opacity="1.000000" stroke="none" 
	d="
M1170.345947,1003.000000 
	C1170.346313,986.345093 1170.502686,970.187744 1170.251099,954.036743 
	C1170.174805,949.141235 1171.893311,947.652222 1176.614868,947.859436 
	C1183.928833,948.180359 1191.276978,948.174133 1198.591675,947.861877 
	C1203.289917,947.661377 1205.491089,949.121155 1204.927246,954.035034 
	C1204.766968,955.431091 1205.176758,956.892517 1205.431274,959.346558 
	C1207.411133,957.939026 1208.700684,957.085693 1209.922363,956.144226 
	C1226.991455,942.989502 1245.831665,942.922241 1265.461792,948.585510 
	C1269.089600,949.632141 1269.634521,951.451660 1267.833374,954.840759 
	C1263.555420,962.890076 1259.627563,971.125549 1255.623535,979.154724 
	C1250.316040,977.526062 1245.675659,975.507080 1240.835327,974.726807 
	C1225.471802,972.249939 1211.436768,981.806946 1207.102051,997.829163 
	C1205.643188,1003.221985 1205.027100,1008.987366 1204.975586,1014.591248 
	C1204.751465,1038.904785 1204.885132,1063.221680 1204.872925,1087.537354 
	C1204.869385,1094.575073 1204.830078,1094.608154 1198.040405,1094.628418 
	C1190.878906,1094.649780 1183.706543,1094.391968 1176.559814,1094.716797 
	C1171.750977,1094.935303 1170.229980,1093.227905 1170.259644,1088.437744 
	C1170.435547,1060.126099 1170.345703,1031.812744 1170.345947,1003.000000 
z"/>
<path fill="#5068B4" opacity="1.000000" stroke="none" 
	d="
M363.283264,975.039795 
	C363.837067,975.836304 364.071625,976.713684 364.492462,978.172852 
	C363.837799,980.136108 363.088287,981.584167 362.138824,982.886475 
	C359.227203,986.879761 356.239014,990.817261 353.280548,994.776428 
	C353.787994,995.356140 354.295441,995.935852 354.802887,996.515564 
	C357.721771,994.939087 360.594543,993.267639 363.575775,991.819458 
	C365.562531,990.854370 367.703888,990.207520 369.776062,989.418274 
	C369.144501,991.444092 368.512878,993.469910 367.881287,995.495728 
	C367.392822,995.785400 366.904358,996.075012 366.415924,996.364685 
	C376.003906,1004.993896 385.591919,1013.623108 395.278534,1022.341064 
	C397.718872,1020.189270 400.881195,1017.400818 404.043518,1014.612427 
	C405.044373,1017.150574 406.045197,1019.688660 406.919769,1022.624512 
	C402.635620,1022.848022 400.653503,1025.309326 400.130035,1028.991943 
	C399.472229,1033.619385 397.033752,1036.600952 393.320923,1039.430298 
	C389.171692,1042.592041 385.889282,1046.893066 382.243073,1050.711060 
	C381.901703,1051.068481 381.746002,1051.667725 381.353302,1051.901855 
	C375.773163,1055.227295 370.408081,1059.110840 364.446106,1061.499756 
	C362.126129,1062.429199 358.185303,1060.434814 355.455200,1058.920532 
	C352.408203,1057.230469 350.342957,1055.347900 346.848694,1058.678833 
	C342.963135,1062.382446 337.937866,1061.630005 333.781464,1058.126343 
	C328.487061,1053.663574 322.368500,1049.947510 317.923706,1044.776245 
	C313.916046,1040.113647 307.571625,1036.546021 307.680847,1028.943481 
	C307.698395,1027.721924 306.106720,1026.477173 305.258911,1025.243042 
	C304.798462,1025.335938 304.338043,1025.428833 303.877594,1025.521606 
	C303.585785,1027.321655 303.051727,1029.120117 303.040985,1030.921875 
	C302.964386,1043.741089 303.045563,1056.561279 302.939636,1069.380249 
	C302.922516,1071.450684 302.224426,1073.515503 301.537109,1075.802612 
	C301.239166,1057.989014 301.276581,1039.955811 301.211945,1021.922913 
	C301.203735,1019.640625 301.622375,1018.076355 304.963257,1017.886902 
	C308.573700,1019.315918 311.433899,1020.801208 314.746033,1022.521118 
	C315.680634,1021.402832 316.870331,1020.069580 317.959167,1018.658508 
	C320.582245,1015.259399 324.356293,1014.574219 327.105652,1017.204285 
	C330.250916,1020.213135 334.143799,1021.568298 337.417755,1023.943665 
	C341.607147,1026.983398 346.407166,1028.744873 350.487732,1032.505737 
	C356.014801,1037.599609 362.894928,1041.435303 368.180084,1047.176392 
	C371.703186,1051.003296 373.943634,1050.466309 376.153595,1046.855713 
	C372.217529,1042.348267 368.418335,1038.149170 364.828217,1033.778320 
	C363.945129,1032.703125 363.743225,1031.068481 363.228149,1029.691040 
	C364.774780,1030.062256 366.712921,1029.971069 367.796814,1030.888794 
	C371.475861,1034.004150 374.926849,1037.403198 378.318909,1040.838135 
	C380.501831,1043.048584 382.266541,1042.631470 384.259918,1040.644287 
	C386.480469,1038.430542 385.980652,1036.660645 383.796997,1034.803711 
	C380.753998,1032.215942 377.664978,1029.651489 374.896271,1026.786499 
	C373.687256,1025.535400 373.223206,1023.564514 372.420868,1021.920471 
	C374.111450,1022.448669 376.138367,1022.556580 377.426483,1023.587585 
	C380.665405,1026.180054 383.422119,1029.381104 386.696747,1031.919312 
	C387.734283,1032.723511 390.602020,1032.869263 391.205383,1032.138428 
	C392.148834,1030.995483 392.734772,1028.036011 391.990784,1027.252319 
	C382.494293,1017.249329 372.733521,1007.497192 363.121613,997.764099 
	C361.721924,998.442017 360.980865,998.790710 360.248688,999.157227 
	C356.628876,1000.969543 352.139496,1002.192322 349.812225,998.781067 
	C348.510803,996.873474 350.711792,992.559631 351.384674,989.340515 
	C351.481018,988.879700 351.859924,988.477905 352.108032,988.048828 
	C354.671295,986.596741 353.730560,985.116333 352.045074,983.329590 
	C355.618896,980.392578 359.291443,977.756592 363.283264,975.039795 
M337.790161,1044.338379 
	C339.950226,1041.424194 342.268250,1038.607910 344.173645,1035.535767 
	C344.742157,1034.618896 344.154968,1032.985229 344.097321,1031.680054 
	C342.616882,1031.790161 340.431458,1031.317139 339.775848,1032.109497 
	C336.634369,1035.906982 333.775024,1039.963867 331.140961,1044.134033 
	C330.599854,1044.990723 331.074371,1047.028076 331.805420,1047.940796 
	C332.222626,1048.461670 334.274414,1048.128052 335.275757,1047.591919 
	C336.186554,1047.104370 336.672302,1045.822876 337.790161,1044.338379 
M329.369720,1038.734131 
	C331.237091,1036.210205 333.317444,1033.807861 334.864410,1031.100830 
	C335.462494,1030.054321 334.851532,1028.316895 334.791382,1026.894165 
	C333.331940,1027.013550 331.359192,1026.575928 330.510529,1027.358032 
	C328.100739,1029.578491 325.817352,1032.100464 324.158844,1034.902954 
	C323.329102,1036.305054 323.969452,1038.577148 323.944885,1040.455811 
	C325.608948,1040.059937 327.273010,1039.663940 329.369720,1038.734131 
M347.683105,1047.256104 
	C349.058502,1045.394775 350.654480,1043.647217 351.700958,1041.616455 
	C352.120697,1040.801758 351.638641,1039.114258 350.977905,1038.305420 
	C350.587646,1037.827759 348.539337,1037.872437 348.100494,1038.400391 
	C345.041290,1042.080322 342.067780,1045.854614 339.421631,1049.834717 
	C338.895569,1050.625977 339.900848,1052.435425 340.200012,1053.775269 
	C341.323242,1053.352295 342.707550,1053.205688 343.512268,1052.445435 
	C344.938873,1051.097778 346.013672,1049.377563 347.683105,1047.256104 
M353.558289,1048.182373 
	C355.301056,1049.967773 356.853729,1052.021973 358.856934,1053.439331 
	C360.083069,1054.307007 362.000641,1054.197510 363.607727,1054.526855 
	C363.697449,1052.707764 364.503357,1050.463989 363.728729,1049.157227 
	C362.082275,1046.380127 359.613739,1044.090454 357.201477,1041.273071 
	C355.448334,1044.132324 354.408173,1045.828735 353.558289,1048.182373 
M327.014069,1023.442200 
	C326.257751,1020.698059 324.581024,1019.035156 322.036407,1021.115723 
	C319.633575,1023.080322 317.630951,1025.653687 315.908722,1028.260742 
	C315.371948,1029.073364 315.904938,1031.329468 316.722321,1032.067871 
	C317.383087,1032.664795 319.703522,1032.476196 320.422821,1031.763306 
	C322.766144,1029.441040 324.712921,1026.718872 327.014069,1023.442200 
z"/>
<path fill="#5068B4" opacity="1.000000" stroke="none" 
	d="
M339.847534,969.874512 
	C338.299744,968.709290 336.697235,967.195740 334.968414,965.375244 
	C336.492371,966.554321 338.142609,968.040222 339.847534,969.874512 
z"/>
<path fill="#5068B4" opacity="1.000000" stroke="none" 
	d="
M406.796753,1078.214355 
	C407.194855,1078.505737 407.477112,1078.985596 407.745667,1079.746338 
	C407.381622,1079.485718 407.031250,1078.944336 406.796753,1078.214355 
z"/>
<path fill="#465FAF" opacity="1.000000" stroke="none" 
	d="
M745.999390,1005.978821 
	C728.747925,1005.978821 711.996277,1005.978821 695.276184,1005.978821 
	C694.678040,988.517761 711.394165,973.810120 730.897888,973.945862 
	C751.689331,974.090576 766.012573,987.112610 765.205078,1005.978821 
	C759.011963,1005.978821 752.755615,1005.978821 745.999390,1005.978821 
z"/>
<path fill="#465FAF" opacity="1.000000" stroke="none" 
	d="
M584.090210,975.713989 
	C598.036682,981.100037 606.489502,993.108154 605.179626,1005.629272 
	C581.996826,1005.629272 558.777527,1005.629272 535.572510,1005.629272 
	C534.505859,993.859863 546.067322,979.061401 559.028198,975.494629 
	C567.253845,973.230957 575.486877,973.488220 584.090210,975.713989 
z"/>
<path fill="#405AAD" opacity="1.000000" stroke="none" 
	d="
M1347.614258,974.335571 
	C1356.444946,973.607666 1364.688477,973.892456 1372.510742,977.588257 
	C1383.106201,982.594299 1387.496094,991.718811 1389.298950,1002.584900 
	C1389.945801,1006.483276 1387.026611,1005.931824 1384.792847,1005.937805 
	C1369.633667,1005.978210 1354.474609,1005.962708 1339.315430,1005.962646 
	C1333.984741,1005.962646 1328.651367,1005.847595 1323.324341,1005.986145 
	C1319.270386,1006.091553 1318.473022,1004.422241 1319.564209,1000.746948 
	C1323.749634,986.649719 1332.182373,977.115662 1347.614258,974.335571 
z"/>
<path fill="#405AAD" opacity="1.000000" stroke="none" 
	d="
M1498.695312,1025.475952 
	C1507.712524,1025.107788 1516.320923,1024.739258 1524.932739,1024.627075 
	C1528.634888,1024.578857 1530.241699,1026.765015 1529.917847,1030.482422 
	C1529.327759,1037.258301 1529.397461,1044.147827 1528.158691,1050.797485 
	C1526.535889,1059.508057 1520.844360,1065.583496 1512.331055,1067.776367 
	C1506.483887,1069.282349 1500.162231,1069.744019 1494.110718,1069.455933 
	C1486.561401,1069.096436 1480.074951,1065.753540 1477.549072,1057.948242 
	C1474.817139,1049.506348 1475.460815,1040.895508 1482.078735,1034.724976 
	C1486.489624,1030.612305 1492.817871,1028.556152 1498.695312,1025.475952 
z"/>
<path fill="#EEF2F3" opacity="1.000000" stroke="none" 
	d="
M351.774170,987.946594 
	C351.859924,988.477905 351.481018,988.879700 351.384674,989.340515 
	C350.711792,992.559631 348.510803,996.873474 349.812225,998.781067 
	C352.139496,1002.192322 356.628876,1000.969543 360.248688,999.157227 
	C360.980865,998.790710 361.721924,998.442017 363.121613,997.764099 
	C372.733521,1007.497192 382.494293,1017.249329 391.990784,1027.252319 
	C392.734772,1028.036011 392.148834,1030.995483 391.205383,1032.138428 
	C390.602020,1032.869263 387.734283,1032.723511 386.696747,1031.919312 
	C383.422119,1029.381104 380.665405,1026.180054 377.426483,1023.587585 
	C376.138367,1022.556580 374.111450,1022.448669 372.420868,1021.920471 
	C373.223206,1023.564514 373.687256,1025.535400 374.896271,1026.786499 
	C377.664978,1029.651489 380.753998,1032.215942 383.796997,1034.803711 
	C385.980652,1036.660645 386.480469,1038.430542 384.259918,1040.644287 
	C382.266541,1042.631470 380.501831,1043.048584 378.318909,1040.838135 
	C374.926849,1037.403198 371.475861,1034.004150 367.796814,1030.888794 
	C366.712921,1029.971069 364.774780,1030.062256 363.228149,1029.691040 
	C363.743225,1031.068481 363.945129,1032.703125 364.828217,1033.778320 
	C368.418335,1038.149170 372.217529,1042.348267 376.153595,1046.855713 
	C373.943634,1050.466309 371.703186,1051.003296 368.180084,1047.176392 
	C362.894928,1041.435303 356.014801,1037.599609 350.487732,1032.505737 
	C346.407166,1028.744873 341.607147,1026.983398 337.417755,1023.943665 
	C334.143799,1021.568298 330.250916,1020.213135 327.105652,1017.204285 
	C324.356293,1014.574219 320.582245,1015.259399 317.959167,1018.658508 
	C316.870331,1020.069580 315.680634,1021.402832 314.746033,1022.521118 
	C311.433899,1020.801208 308.573700,1019.315918 305.338837,1017.715576 
	C304.406921,1015.993591 304.292236,1013.966675 303.225891,1012.842773 
	C287.308197,996.066589 271.274963,979.399902 255.245255,962.730103 
	C249.963348,957.237366 246.708740,951.039551 246.940475,943.109375 
	C247.340790,929.410706 260.566589,918.456543 274.166199,920.241882 
	C285.920837,921.784973 294.112701,928.889954 301.769897,936.800049 
	C317.617889,953.171387 333.189850,969.809814 348.911316,986.304016 
	C349.568970,986.994141 350.589111,987.338745 351.774170,987.946594 
z"/>
<path fill="#EEF2F3" opacity="1.000000" stroke="none" 
	d="
M404.155304,1014.313599 
	C400.881195,1017.400818 397.718872,1020.189270 395.278534,1022.341064 
	C385.591919,1013.623108 376.003906,1004.993896 366.415924,996.364685 
	C366.904358,996.075012 367.392822,995.785400 367.881287,995.495728 
	C368.512878,993.469910 369.144501,991.444092 369.776062,989.418274 
	C367.703888,990.207520 365.562531,990.854370 363.575775,991.819458 
	C360.594543,993.267639 357.721771,994.939087 354.802887,996.515564 
	C354.295441,995.935852 353.787994,995.356140 353.280548,994.776428 
	C356.239014,990.817261 359.227203,986.879761 362.138824,982.886475 
	C363.088287,981.584167 363.837799,980.136108 364.749695,978.416138 
	C366.638458,977.051453 368.847046,976.392883 370.212463,974.941223 
	C381.600983,962.834290 392.482147,950.227417 404.256683,938.515625 
	C410.545166,932.260620 417.924164,926.881287 425.473206,922.167114 
	C436.208099,915.463379 448.025452,918.581970 456.756897,929.358887 
	C463.334747,937.477661 462.607208,948.992920 454.499420,957.997192 
	C440.486328,973.559937 426.232239,988.905457 412.146790,1004.403381 
	C409.364014,1007.465271 406.885773,1010.803894 404.155304,1014.313599 
z"/>
<path fill="#EEF2F3" opacity="1.000000" stroke="none" 
	d="
M337.567810,1044.614868 
	C336.672302,1045.822876 336.186554,1047.104370 335.275757,1047.591919 
	C334.274414,1048.128052 332.222626,1048.461670 331.805420,1047.940796 
	C331.074371,1047.028076 330.599854,1044.990723 331.140961,1044.134033 
	C333.775024,1039.963867 336.634369,1035.906982 339.775848,1032.109497 
	C340.431458,1031.317139 342.616882,1031.790161 344.097290,1031.680054 
	C344.154968,1032.985229 344.742157,1034.618896 344.173645,1035.535767 
	C342.268250,1038.607910 339.950226,1041.424194 337.567810,1044.614868 
z"/>
<path fill="#EEF2F3" opacity="1.000000" stroke="none" 
	d="
M329.153381,1039.000977 
	C327.273010,1039.663940 325.608948,1040.059937 323.944885,1040.455811 
	C323.969452,1038.577148 323.329102,1036.305054 324.158844,1034.902954 
	C325.817352,1032.100464 328.100739,1029.578491 330.510529,1027.358032 
	C331.359192,1026.575928 333.331940,1027.013550 334.791382,1026.894165 
	C334.851532,1028.316895 335.462494,1030.054321 334.864410,1031.100830 
	C333.317444,1033.807861 331.237091,1036.210205 329.153381,1039.000977 
z"/>
<path fill="#EEF2F3" opacity="1.000000" stroke="none" 
	d="
M347.459381,1047.534668 
	C346.013672,1049.377563 344.938873,1051.097778 343.512268,1052.445435 
	C342.707550,1053.205688 341.323242,1053.352295 340.200012,1053.775269 
	C339.900848,1052.435425 338.895569,1050.625977 339.421631,1049.834717 
	C342.067780,1045.854614 345.041290,1042.080322 348.100494,1038.400391 
	C348.539337,1037.872437 350.587646,1037.827759 350.977905,1038.305420 
	C351.638641,1039.114258 352.120697,1040.801758 351.700958,1041.616455 
	C350.654480,1043.647217 349.058502,1045.394775 347.459381,1047.534668 
z"/>
<path fill="#EEF2F3" opacity="1.000000" stroke="none" 
	d="
M353.463135,1047.853760 
	C354.408173,1045.828735 355.448334,1044.132324 357.201477,1041.273071 
	C359.613739,1044.090454 362.082275,1046.380127 363.728729,1049.157227 
	C364.503357,1050.463989 363.697449,1052.707764 363.607697,1054.526855 
	C362.000641,1054.197510 360.083069,1054.307007 358.856934,1053.439331 
	C356.853729,1052.021973 355.301056,1049.967773 353.463135,1047.853760 
z"/>
<path fill="#EEF2F3" opacity="1.000000" stroke="none" 
	d="
M326.913208,1023.796387 
	C324.712921,1026.718872 322.766144,1029.441040 320.422821,1031.763306 
	C319.703522,1032.476196 317.383087,1032.664795 316.722321,1032.067871 
	C315.904938,1031.329468 315.371948,1029.073364 315.908722,1028.260742 
	C317.630951,1025.653687 319.633575,1023.080322 322.036407,1021.115723 
	C324.581024,1019.035156 326.257751,1020.698059 326.913208,1023.796387 
z"/>
</svg>